STARTFONT 2.3
FONT -FontForge-Monofett-Book-R-Normal--16-160-72-72-P-86-ISO10646-1
SIZE 16 72 72  2
FONTBOUNDINGBOX 11 19 0 -3
COMMENT "Generated by fontforge, http://fontforge.sourceforge.net"
COMMENT "Copyright (c) 2011 by vernon adams. All rights reserved."
STARTPROPERTIES 41
FOUNDRY "FontForge"
FAMILY_NAME "Monofett"
WEIGHT_NAME "Book"
SLANT "R"
SETWIDTH_NAME "Normal"
ADD_STYLE_NAME ""
PIXEL_SIZE 16
POINT_SIZE 160
RESOLUTION_X 72
RESOLUTION_Y 72
SPACING "P"
AVERAGE_WIDTH 86
CHARSET_REGISTRY "ISO10646"
CHARSET_ENCODING "1"
FONTNAME_REGISTRY ""
CHARSET_COLLECTIONS "ISO8859-2 ISO8859-9 ISO8859-4 ISO10646-1"
BITS_PER_PIXEL 2
FONT_NAME "Monofett"
FACE_NAME "Monofett"
COPYRIGHT "Copyright (c) 2011 by vernon adams. All rights reserved."
FONT_VERSION "1.000"
FONT_ASCENT 13
FONT_DESCENT 3
UNDERLINE_POSITION -2
UNDERLINE_THICKNESS 1
X_HEIGHT 10
CAP_HEIGHT 10
RAW_ASCENT 799
RAW_DESCENT 200
NORM_SPACE 2
RELATIVE_WEIGHT 40
RELATIVE_SETWIDTH 50
SUPERSCRIPT_X 0
SUPERSCRIPT_Y 7
SUPERSCRIPT_SIZE 10
SUBSCRIPT_X 0
SUBSCRIPT_Y 2
SUBSCRIPT_SIZE 10
FIGURE_WIDTH 9
AVG_LOWERCASE_WIDTH 90
AVG_UPPERCASE_WIDTH 90
ENDPROPERTIES
CHARS 409
STARTCHAR uni000D
ENCODING 13
SWIDTH 144 0
DWIDTH 2 0
BBX 1 1 0 0
BITMAP
00
ENDCHAR
STARTCHAR space
ENCODING 32
SWIDTH 144 0
DWIDTH 2 0
BBX 1 1 0 0
BITMAP
00
ENDCHAR
STARTCHAR exclam
ENCODING 33
SWIDTH 424 0
DWIDTH 7 0
BBX 7 11 0 0
BITMAP
1A80
7CF0
FCF8
FDF8
FDF8
FDF8
FEF8
FDF8
FFF8
BFF4
1F90
ENDCHAR
STARTCHAR quotedbl
ENCODING 34
SWIDTH 424 0
DWIDTH 7 0
BBX 7 11 0 0
BITMAP
1A80
79B0
F9B8
FFF8
FFF8
FFF8
FFF8
FFF8
FFF8
BFF4
1F90
ENDCHAR
STARTCHAR numbersign
ENCODING 35
SWIDTH 482 0
DWIDTH 8 0
BBX 8 11 0 0
BITMAP
1A90
7EFC
F96E
F82E
F97E
F42E
F63E
FFFE
FFFE
BFFD
1FE4
ENDCHAR
STARTCHAR dollar
ENCODING 36
SWIDTH 578 0
DWIDTH 9 0
BBX 10 11 0 0
BITMAP
1AA900
7E6F80
F953C0
F67FD0
F807D0
FF73D0
F963D0
FE6BD0
FFBFD0
BFFF80
1FFE00
ENDCHAR
STARTCHAR percent
ENCODING 37
SWIDTH 578 0
DWIDTH 9 0
BBX 10 11 0 0
BITMAP
1AA900
76EF80
D89FC0
E16FD0
FF7AD0
FF54D0
FEA4D0
FFFFD0
FFFFD0
BFFF80
1FFE00
ENDCHAR
STARTCHAR ampersand
ENCODING 38
SWIDTH 578 0
DWIDTH 9 0
BBX 10 11 0 0
BITMAP
1AA900
7D5B80
FDFFC0
FDA6D0
FD52D0
FDF7D0
FCA3D0
FEABD0
FFFFD0
BFFF80
1FFE00
ENDCHAR
STARTCHAR quotesingle
ENCODING 39
SWIDTH 424 0
DWIDTH 7 0
BBX 7 11 0 0
BITMAP
1A80
7DF0
FDF8
FFF8
FFF8
FFF8
FFF8
FFF8
FFF8
BFF4
1F90
ENDCHAR
STARTCHAR parenleft
ENCODING 40
SWIDTH 483 0
DWIDTH 8 0
BBX 8 11 0 0
BITMAP
1A90
787C
FAFE
FAFE
FAFE
FAFE
FAFE
F9BE
FEBE
BFFD
1FE4
ENDCHAR
STARTCHAR parenright
ENCODING 41
SWIDTH 483 0
DWIDTH 8 0
BBX 8 11 0 0
BITMAP
1A90
7D7C
FF7E
FF7E
FF7E
FF7E
FF7E
FE7E
FEBE
BFFD
1FE4
ENDCHAR
STARTCHAR asterisk
ENCODING 42
SWIDTH 428 0
DWIDTH 7 0
BBX 7 11 0 0
BITMAP
1A80
7A74
F468
F86C
FABC
FFFC
FFFC
FFFC
FFF8
BFF4
1F90
ENDCHAR
STARTCHAR plus
ENCODING 43
SWIDTH 428 0
DWIDTH 7 0
BBX 7 11 0 0
BITMAP
1A80
7DF4
E8A8
F8BC
FDFC
FFFC
FFFC
FFFC
FFF8
BFF4
1F90
ENDCHAR
STARTCHAR comma
ENCODING 44
SWIDTH 428 0
DWIDTH 7 0
BBX 7 11 0 0
BITMAP
1A80
7FF4
FFF8
FFFC
FFFC
FFFC
FDFC
FDFC
FEF8
BFF4
1F90
ENDCHAR
STARTCHAR hyphen
ENCODING 45
SWIDTH 428 0
DWIDTH 7 0
BBX 7 11 0 0
BITMAP
1A80
7FF4
FFF8
F57C
FFFC
FFFC
FFFC
FFFC
FFF8
BFF4
1F90
ENDCHAR
STARTCHAR period
ENCODING 46
SWIDTH 428 0
DWIDTH 7 0
BBX 7 11 0 0
BITMAP
1A80
7FF4
FFF8
FFFC
FFFC
FFFC
FDFC
FEFC
FFF8
BFF4
1F90
ENDCHAR
STARTCHAR slash
ENCODING 47
SWIDTH 428 0
DWIDTH 7 0
BBX 7 11 0 0
BITMAP
1A80
7EB4
FDB8
FDFC
FDFC
F9FC
F9FC
FAFC
FFF8
BFF4
1F90
ENDCHAR
STARTCHAR zero
ENCODING 48
SWIDTH 578 0
DWIDTH 9 0
BBX 10 11 0 0
BITMAP
1AA900
785380
FAFAC0
FAFAD0
FAFAD0
FAFAD0
F9A6D0
FEABD0
FFFFD0
BFFF80
1FFE00
ENDCHAR
STARTCHAR one
ENCODING 49
SWIDTH 578 0
DWIDTH 9 0
BBX 10 11 0 0
BITMAP
1AA900
7E2F80
FF6FC0
FF6FD0
FF6FD0
FF6FD0
FF6FD0
FFBFD0
FFFFD0
BFFF80
1FFE00
ENDCHAR
STARTCHAR two
ENCODING 50
SWIDTH 578 0
DWIDTH 9 0
BBX 10 11 0 0
BITMAP
1AA900
785780
FAF6C0
FFF6D0
F957D0
FAFFD0
F9ABD0
FEABD0
FFFFD0
BFFF80
1FFE00
ENDCHAR
STARTCHAR three
ENCODING 51
SWIDTH 578 0
DWIDTH 9 0
BBX 10 11 0 0
BITMAP
1AA900
785780
FBF7C0
FFF7D0
FE53D0
FFF7D0
F6A3D0
FEABD0
FFFFD0
BFFF80
1FFE00
ENDCHAR
STARTCHAR four
ENCODING 52
SWIDTH 578 0
DWIDTH 9 0
BBX 10 11 0 0
BITMAP
1AA900
79EB80
F9EBC0
F9EBD0
FDEBD0
FD42D0
FFEBD0
FFEBD0
FFFFD0
BFFF80
1FFE00
ENDCHAR
STARTCHAR five
ENCODING 53
SWIDTH 578 0
DWIDTH 9 0
BBX 10 11 0 0
BITMAP
1AA900
785780
FAFFC0
F9ABD0
FAA6D0
FFF6D0
F9A6D0
FEABD0
FFFFD0
BFFF80
1FFE00
ENDCHAR
STARTCHAR six
ENCODING 54
SWIDTH 578 0
DWIDTH 9 0
BBX 10 11 0 0
BITMAP
1AA900
780380
FAFFC0
F95BD0
F9A6D0
FAF9D0
F9A6D0
FEABD0
FFFFD0
BFFF80
1FFE00
ENDCHAR
STARTCHAR seven
ENCODING 55
SWIDTH 578 0
DWIDTH 9 0
BBX 10 11 0 0
BITMAP
1AA900
7D4780
FFDBC0
FFCFD0
FF9FD0
FF6FD0
FF3FD0
FFBFD0
FFFFD0
BFFF80
1FFE00
ENDCHAR
STARTCHAR eight
ENCODING 56
SWIDTH 578 0
DWIDTH 9 0
BBX 10 11 0 0
BITMAP
1AA900
785380
F6FAC0
F5A6D0
F956D0
F6FAD0
F9A6D0
FEABD0
FFFFD0
BFFF80
1FFE00
ENDCHAR
STARTCHAR nine
ENCODING 57
SWIDTH 578 0
DWIDTH 9 0
BBX 10 11 0 0
BITMAP
1AA900
785780
F6F6C0
F6F6D0
F802D0
FFF6D0
FEA6D0
FEABD0
FFFFD0
BFFF80
1FFE00
ENDCHAR
STARTCHAR colon
ENCODING 58
SWIDTH 428 0
DWIDTH 7 0
BBX 7 11 0 0
BITMAP
1A80
7FF4
FFF8
FFFC
FDFC
FEFC
FDFC
FEFC
FFF8
BFF4
1F90
ENDCHAR
STARTCHAR semicolon
ENCODING 59
SWIDTH 428 0
DWIDTH 7 0
BBX 7 11 0 0
BITMAP
1A80
7FF4
FFF8
FFFC
FDFC
FEFC
FDFC
FDFC
FEF8
BFF4
1F90
ENDCHAR
STARTCHAR less
ENCODING 60
SWIDTH 482 0
DWIDTH 8 0
BBX 8 12 0 0
BITMAP
2FF4
BFFD
FFFE
FF7E
FDFE
F7FE
FAFE
FEBE
FFBE
BFFD
2FF4
0100
ENDCHAR
STARTCHAR equal
ENCODING 61
SWIDTH 482 0
DWIDTH 8 0
BBX 8 12 0 0
BITMAP
2FF4
BFFD
FFFE
FFFE
FAAE
FFFE
F96E
FFFE
FFFE
BFFD
2FF4
0140
ENDCHAR
STARTCHAR greater
ENCODING 62
SWIDTH 482 0
DWIDTH 8 0
BBX 8 12 0 0
BITMAP
2FF4
BFFD
FFFE
FDFE
FF7E
FFAE
FF7E
FEBE
FEFE
BFFD
2FF4
0140
ENDCHAR
STARTCHAR question
ENCODING 63
SWIDTH 578 0
DWIDTH 9 0
BBX 10 11 0 0
BITMAP
1AA900
7D5780
FEFAC0
FFFAD0
FF97D0
FFAFD0
FFBFD0
FFBFD0
FFFFD0
BFFF80
1FFE00
ENDCHAR
STARTCHAR at
ENCODING 64
SWIDTH 578 0
DWIDTH 9 0
BBX 10 11 0 0
BITMAP
1AA900
755680
EA6DC0
DFE9D0
DE5A90
DDEA90
EA65D0
F6BFD0
FEBFD0
BFFF80
1FFE00
ENDCHAR
STARTCHAR A
ENCODING 65
SWIDTH 578 0
DWIDTH 9 0
BBX 10 11 0 0
BITMAP
1AA900
7D1780
FDF3C0
F9F7D0
F853D0
FAF6D0
F6F6D0
FBFAD0
FFFFD0
BFFF80
1FFE00
ENDCHAR
STARTCHAR B
ENCODING 66
SWIDTH 578 0
DWIDTH 9 0
BBX 10 11 0 0
BITMAP
1AA900
745780
F6F7C0
F6A7D0
F557D0
F6F7D0
F5A3D0
FAABD0
FFFFD0
BFFF80
1FFE00
ENDCHAR
STARTCHAR C
ENCODING 67
SWIDTH 578 0
DWIDTH 9 0
BBX 10 11 0 0
BITMAP
1AA900
785B80
F6FFC0
F6FFD0
F6FFD0
F6FFD0
F5ABD0
FEABD0
FFFFD0
BFFF80
1FFE00
ENDCHAR
STARTCHAR D
ENCODING 68
SWIDTH 578 0
DWIDTH 9 0
BBX 10 11 0 0
BITMAP
1AA900
785280
FAFAC0
FAFAD0
FAFAD0
FAFAD0
F9A6D0
FAABD0
FFFFD0
BFFF80
1FFE00
ENDCHAR
STARTCHAR E
ENCODING 69
SWIDTH 578 0
DWIDTH 9 0
BBX 10 11 0 0
BITMAP
1AA900
7C5780
FDFFC0
FDAFD0
FC5BD0
FDFFD0
FDABD0
FEABD0
FFFFD0
BFFF80
1FFE00
ENDCHAR
STARTCHAR F
ENCODING 70
SWIDTH 578 0
DWIDTH 9 0
BBX 10 11 0 0
BITMAP
1AA900
7C5780
FDFFC0
FCABD0
FCABD0
FDFFD0
FDFFD0
FEFFD0
FFFFD0
BFFF80
1FFE00
ENDCHAR
STARTCHAR G
ENCODING 71
SWIDTH 578 0
DWIDTH 9 0
BBX 10 11 0 0
BITMAP
1AA900
7D5780
F9FFC0
F9FFD0
F9D2D0
F9FAD0
F9A6D0
FEABD0
FFFFD0
BFFF80
1FFE00
ENDCHAR
STARTCHAR H
ENCODING 72
SWIDTH 578 0
DWIDTH 9 0
BBX 10 11 0 0
BITMAP
1AA900
7AFA80
FAFAC0
F9A6D0
F956D0
FAFAD0
FAFAD0
FAFED0
FFFFD0
BFFF80
1FFE00
ENDCHAR
STARTCHAR I
ENCODING 73
SWIDTH 578 0
DWIDTH 9 0
BBX 10 11 0 0
BITMAP
1AA900
790680
FFAFC0
FFAFD0
FFAFD0
FFAFD0
FE5BD0
FEABD0
FFFFD0
BFFF80
1FFE00
ENDCHAR
STARTCHAR J
ENCODING 74
SWIDTH 578 0
DWIDTH 9 0
BBX 10 11 0 0
BITMAP
1AA900
7FDF80
FFDFC0
FFDFD0
FFDFD0
FFDFD0
FE8FD0
FEAFD0
FFFFD0
BFFF80
1FFE00
ENDCHAR
STARTCHAR K
ENCODING 75
SWIDTH 578 0
DWIDTH 9 0
BBX 10 11 0 0
BITMAP
1AA900
7DF580
FDD7C0
FD5FD0
FD2FD0
FDDBD0
FDF6D0
FEFED0
FFFFD0
BFFF80
1FFE00
ENDCHAR
STARTCHAR L
ENCODING 76
SWIDTH 578 0
DWIDTH 9 0
BBX 10 11 0 0
BITMAP
1AA900
7EBF80
FEBFC0
FEBFD0
FEBFD0
FEBFD0
FE6BD0
FEABD0
FFFFD0
BFFF80
1FFE00
ENDCHAR
STARTCHAR M
ENCODING 77
SWIDTH 578 0
DWIDTH 9 0
BBX 10 11 0 0
BITMAP
1AA900
755180
F36DC0
F36DD0
F36DD0
F3FDD0
F3FDD0
FBFED0
FFFFD0
BFFF80
1FFE00
ENDCHAR
STARTCHAR N
ENCODING 78
SWIDTH 578 0
DWIDTH 9 0
BBX 10 11 0 0
BITMAP
1AA900
785780
FAF6C0
FAF6D0
FAF6D0
FAF6D0
FAF6D0
FBFBD0
FFFFD0
BFFF80
1FFE00
ENDCHAR
STARTCHAR O
ENCODING 79
SWIDTH 578 0
DWIDTH 9 0
BBX 10 11 0 0
BITMAP
1AA900
785280
FAFAC0
FAFAD0
FAFAD0
FAFAD0
F9A6D0
FEABD0
FFFFD0
BFFF80
1FFE00
ENDCHAR
STARTCHAR P
ENCODING 80
SWIDTH 578 0
DWIDTH 9 0
BBX 10 11 0 0
BITMAP
1AA900
7C5780
FDF6C0
FDF6D0
FC53D0
FDFFD0
FDFFD0
FEFFD0
FFFFD0
BFFF80
1FFE00
ENDCHAR
STARTCHAR Q
ENCODING 81
SWIDTH 578 0
DWIDTH 9 0
BBX 10 11 0 0
BITMAP
1AA900
785280
FAFAC0
FAFAD0
FAFAD0
FAFAD0
F956D0
FE97D0
FFFBD0
BFFF80
1FFE00
ENDCHAR
STARTCHAR R
ENCODING 82
SWIDTH 578 0
DWIDTH 9 0
BBX 10 11 0 0
BITMAP
1AA900
784780
F9F3C0
F9F7D0
F80BD0
F9F7D0
F9F7D0
FEFBD0
FFFFD0
BFFF80
1FFE00
ENDCHAR
STARTCHAR S
ENCODING 83
SWIDTH 578 0
DWIDTH 9 0
BBX 10 11 0 0
BITMAP
1AA900
7D5780
F9FFC0
F9AFD0
FE52D0
FFF6D0
FEA6D0
FEABD0
FFFFD0
BFFF80
1FFE00
ENDCHAR
STARTCHAR T
ENCODING 84
SWIDTH 578 0
DWIDTH 9 0
BBX 10 11 0 0
BITMAP
1AA900
790680
FFAFC0
FFAFD0
FFAFD0
FFAFD0
FFAFD0
FFEFD0
FFFFD0
BFFF80
1FFE00
ENDCHAR
STARTCHAR U
ENCODING 85
SWIDTH 578 0
DWIDTH 9 0
BBX 10 11 0 0
BITMAP
1AA900
7AFA80
FAFAC0
FAFAD0
FAFAD0
FAFAD0
F9A6D0
FEABD0
FFFFD0
BFFF80
1FFE00
ENDCHAR
STARTCHAR V
ENCODING 86
SWIDTH 578 0
DWIDTH 9 0
BBX 10 11 0 0
BITMAP
1AA900
7AF680
F9F3C0
FCF7D0
FDA7D0
FE9BD0
FF4FD0
FFAFD0
FFFFD0
BFFF80
1FFE00
ENDCHAR
STARTCHAR W
ENCODING 87
SWIDTH 578 0
DWIDTH 9 0
BBX 10 11 0 0
BITMAP
1AA900
67AD80
F76DC0
F319D0
F359D0
F65AD0
F596D0
FEFBD0
FFFFD0
BFFF80
1FFE00
ENDCHAR
STARTCHAR X
ENCODING 88
SWIDTH 578 0
DWIDTH 9 0
BBX 10 11 0 0
BITMAP
1AA900
79F680
FDA7C0
FF5BD0
FF4FD0
FE6BD0
FDF7D0
FEFFD0
FFFFD0
BFFF80
1FFE00
ENDCHAR
STARTCHAR Y
ENCODING 89
SWIDTH 578 0
DWIDTH 9 0
BBX 10 11 0 0
BITMAP
1AA900
79F780
FDA7C0
FE5BD0
FF1FD0
FF6FD0
FFAFD0
FFAFD0
FFFFD0
BFFF80
1FFE00
ENDCHAR
STARTCHAR Z
ENCODING 90
SWIDTH 578 0
DWIDTH 9 0
BBX 10 11 0 0
BITMAP
1AA900
7D4780
FFDBC0
FF9FD0
FF6FD0
FE7FD0
FCABD0
FEABD0
FFFFD0
BFFF80
1FFE00
ENDCHAR
STARTCHAR bracketleft
ENCODING 91
SWIDTH 484 0
DWIDTH 8 0
BBX 8 11 0 0
BITMAP
1AA0
7DBC
FDFE
FDFE
FDFE
FDFE
FDFE
FDBE
FEFE
BFFD
1FE4
ENDCHAR
STARTCHAR backslash
ENCODING 92
SWIDTH 516 0
DWIDTH 8 0
BBX 9 11 0 0
BITMAP
1AA400
7DBE00
FEBF00
FE7F40
FF7F40
FF3F40
FF7F40
FFBF40
FFFF40
BFFE00
1FF800
ENDCHAR
STARTCHAR bracketright
ENCODING 93
SWIDTH 484 0
DWIDTH 8 0
BBX 8 11 0 0
BITMAP
1AA0
7DBC
FEBE
FEBE
FEBE
FEBE
FEBE
FDBE
FEFE
BFFD
1FE4
ENDCHAR
STARTCHAR asciicircum
ENCODING 94
SWIDTH 355 0
DWIDTH 6 0
BBX 6 6 0 4
BITMAP
0500
3F80
76C0
BAD0
EEE0
BFD0
ENDCHAR
STARTCHAR underscore
ENCODING 95
SWIDTH 428 0
DWIDTH 7 0
BBX 7 11 0 0
BITMAP
1A80
7FF4
FFF8
FFFC
FFFC
FFFC
FFFC
E57C
FAB8
BFF4
1F90
ENDCHAR
STARTCHAR grave
ENCODING 96
SWIDTH 308 0
DWIDTH 5 0
BBX 5 6 0 0
BITMAP
1400
BF00
F740
B780
3EC0
1A40
ENDCHAR
STARTCHAR a
ENCODING 97
SWIDTH 578 0
DWIDTH 9 0
BBX 10 11 0 0
BITMAP
1AA900
7C5780
FFF7C0
FFF7D0
F807D0
F7F7D0
F5A7D0
FEABD0
FFFFD0
BFFF80
1FFE00
ENDCHAR
STARTCHAR b
ENCODING 98
SWIDTH 578 0
DWIDTH 9 0
BBX 10 11 0 0
BITMAP
1AA900
745780
F6F7C0
F6A7D0
F557D0
F6F7D0
F5A3D0
FAABD0
FFFFD0
BFFF80
1FFE00
ENDCHAR
STARTCHAR c
ENCODING 99
SWIDTH 578 0
DWIDTH 9 0
BBX 10 11 0 0
BITMAP
1AA900
785B80
F6FFC0
F6FFD0
F6FFD0
F6FFD0
F5ABD0
FEABD0
FFFFD0
BFFF80
1FFE00
ENDCHAR
STARTCHAR d
ENCODING 100
SWIDTH 578 0
DWIDTH 9 0
BBX 10 11 0 0
BITMAP
1AA900
785280
FAFAC0
FAFAD0
FAFAD0
FAFAD0
F9A6D0
FAABD0
FFFFD0
BFFF80
1FFE00
ENDCHAR
STARTCHAR e
ENCODING 101
SWIDTH 578 0
DWIDTH 9 0
BBX 10 11 0 0
BITMAP
1AA900
785780
F6F3C0
F553D0
F6ABD0
F6FFD0
F95BD0
FEAFD0
FFFFD0
BFFF80
1FFE00
ENDCHAR
STARTCHAR f
ENCODING 102
SWIDTH 578 0
DWIDTH 9 0
BBX 10 11 0 0
BITMAP
1AA900
7C5780
FDFFC0
FCABD0
FCABD0
FDFFD0
FDFFD0
FEFFD0
FFFFD0
BFFF80
1FFE00
ENDCHAR
STARTCHAR g
ENCODING 103
SWIDTH 578 0
DWIDTH 9 0
BBX 10 11 0 0
BITMAP
1AA900
7D5780
F9FFC0
F9FFD0
F9D2D0
F9FAD0
F9A6D0
FEABD0
FFFFD0
BFFF80
1FFE00
ENDCHAR
STARTCHAR h
ENCODING 104
SWIDTH 578 0
DWIDTH 9 0
BBX 10 11 0 0
BITMAP
1AA900
7AFA80
FAFAC0
F9A6D0
F956D0
FAFAD0
FAFAD0
FAFED0
FFFFD0
BFFF80
1FFE00
ENDCHAR
STARTCHAR i
ENCODING 105
SWIDTH 578 0
DWIDTH 9 0
BBX 10 11 0 0
BITMAP
1AA900
790680
FFAFC0
FFAFD0
FFAFD0
FFAFD0
FE5BD0
FEABD0
FFFFD0
BFFF80
1FFE00
ENDCHAR
STARTCHAR j
ENCODING 106
SWIDTH 578 0
DWIDTH 9 0
BBX 10 11 0 0
BITMAP
1AA900
7FDF80
FFDFC0
FFDFD0
FFDFD0
FFDFD0
FE8FD0
FEAFD0
FFFFD0
BFFF80
1FFE00
ENDCHAR
STARTCHAR k
ENCODING 107
SWIDTH 578 0
DWIDTH 9 0
BBX 10 11 0 0
BITMAP
1AA900
7DF580
FDD7C0
FD5FD0
FD2FD0
FDDBD0
FDF6D0
FEFED0
FFFFD0
BFFF80
1FFE00
ENDCHAR
STARTCHAR l
ENCODING 108
SWIDTH 578 0
DWIDTH 9 0
BBX 10 11 0 0
BITMAP
1AA900
7EBF80
FEBFC0
FEBFD0
FEBFD0
FEBFD0
FE6BD0
FEABD0
FFFFD0
BFFF80
1FFE00
ENDCHAR
STARTCHAR m
ENCODING 109
SWIDTH 578 0
DWIDTH 9 0
BBX 10 11 0 0
BITMAP
1AA900
755180
F36DC0
F36DD0
F36DD0
F3FDD0
F3FDD0
FBFED0
FFFFD0
BFFF80
1FFE00
ENDCHAR
STARTCHAR n
ENCODING 110
SWIDTH 578 0
DWIDTH 9 0
BBX 10 11 0 0
BITMAP
1AA900
785780
FAF6C0
FAF6D0
FAF6D0
FAF6D0
FAF6D0
FBFBD0
FFFFD0
BFFF80
1FFE00
ENDCHAR
STARTCHAR o
ENCODING 111
SWIDTH 578 0
DWIDTH 9 0
BBX 10 11 0 0
BITMAP
1AA900
785280
FAFAC0
FAFAD0
FAFAD0
FAFAD0
F9A6D0
FEABD0
FFFFD0
BFFF80
1FFE00
ENDCHAR
STARTCHAR p
ENCODING 112
SWIDTH 578 0
DWIDTH 9 0
BBX 10 11 0 0
BITMAP
1AA900
7C5780
FDF6C0
FDF6D0
FC53D0
FDFFD0
FDFFD0
FEFFD0
FFFFD0
BFFF80
1FFE00
ENDCHAR
STARTCHAR q
ENCODING 113
SWIDTH 578 0
DWIDTH 9 0
BBX 10 11 0 0
BITMAP
1AA900
785280
FAFAC0
FAFAD0
FAFAD0
FAFAD0
F956D0
FE97D0
FFFBD0
BFFF80
1FFE00
ENDCHAR
STARTCHAR r
ENCODING 114
SWIDTH 578 0
DWIDTH 9 0
BBX 10 11 0 0
BITMAP
1AA900
784780
F9F3C0
F9F7D0
F80BD0
F9F7D0
F9F7D0
FEFBD0
FFFFD0
BFFF80
1FFE00
ENDCHAR
STARTCHAR s
ENCODING 115
SWIDTH 578 0
DWIDTH 9 0
BBX 10 11 0 0
BITMAP
1AA900
7D5780
F9FFC0
F9AFD0
FE52D0
FFF6D0
FEA6D0
FEABD0
FFFFD0
BFFF80
1FFE00
ENDCHAR
STARTCHAR t
ENCODING 116
SWIDTH 578 0
DWIDTH 9 0
BBX 10 11 0 0
BITMAP
1AA900
790680
FFAFC0
FFAFD0
FFAFD0
FFAFD0
FFAFD0
FFEFD0
FFFFD0
BFFF80
1FFE00
ENDCHAR
STARTCHAR u
ENCODING 117
SWIDTH 578 0
DWIDTH 9 0
BBX 10 11 0 0
BITMAP
1AA900
7AFA80
FAFAC0
FAFAD0
FAFAD0
FAFAD0
F9A6D0
FEABD0
FFFFD0
BFFF80
1FFE00
ENDCHAR
STARTCHAR v
ENCODING 118
SWIDTH 578 0
DWIDTH 9 0
BBX 10 11 0 0
BITMAP
1AA900
7AF680
F9F3C0
FCF7D0
FDA7D0
FE9BD0
FF4FD0
FFAFD0
FFFFD0
BFFF80
1FFE00
ENDCHAR
STARTCHAR w
ENCODING 119
SWIDTH 578 0
DWIDTH 9 0
BBX 10 11 0 0
BITMAP
1AA900
67AD80
F76DC0
F319D0
F359D0
F65AD0
F596D0
FEFBD0
FFFFD0
BFFF80
1FFE00
ENDCHAR
STARTCHAR x
ENCODING 120
SWIDTH 578 0
DWIDTH 9 0
BBX 10 11 0 0
BITMAP
1AA900
79F680
FDA7C0
FF5BD0
FF4FD0
FE6BD0
FDF7D0
FEFFD0
FFFFD0
BFFF80
1FFE00
ENDCHAR
STARTCHAR y
ENCODING 121
SWIDTH 578 0
DWIDTH 9 0
BBX 10 11 0 0
BITMAP
1AA900
79F780
FDA7C0
FE5BD0
FF1FD0
FF6FD0
FFAFD0
FFAFD0
FFFFD0
BFFF80
1FFE00
ENDCHAR
STARTCHAR z
ENCODING 122
SWIDTH 578 0
DWIDTH 9 0
BBX 10 11 0 0
BITMAP
1AA900
7D4780
FFDBC0
FF9FD0
FF6FD0
FE7FD0
FCABD0
FEABD0
FFFFD0
BFFF80
1FFE00
ENDCHAR
STARTCHAR braceleft
ENCODING 123
SWIDTH 484 0
DWIDTH 8 0
BBX 8 11 0 0
BITMAP
1A50
7C7C
FDFE
F9FE
D1FE
F9FE
F9FE
FC7E
FFBE
BFFD
1FE4
ENDCHAR
STARTCHAR bar
ENCODING 124
SWIDTH 484 0
DWIDTH 8 0
BBX 8 11 0 0
BITMAP
19A0
7EBC
FEBE
FEBE
FEBE
FEBE
FEBE
FEBE
FFFE
BFFD
1FE4
ENDCHAR
STARTCHAR braceright
ENCODING 125
SWIDTH 484 0
DWIDTH 8 0
BBX 8 11 0 0
BITMAP
16A0
797C
FF7E
FF7E
FF4A
FF3E
FF7E
F97E
FEFE
BFFD
1FE4
ENDCHAR
STARTCHAR asciitilde
ENCODING 126
SWIDTH 578 0
DWIDTH 9 0
BBX 10 11 0 0
BITMAP
1AA900
7FFF80
FFFBC0
F957D0
FFFFD0
FFFFD0
FFFFD0
FFFFD0
FFFFD0
BFFF80
1FFE00
ENDCHAR
STARTCHAR uni00A0
ENCODING 160
SWIDTH 151 0
DWIDTH 2 0
BBX 1 1 0 0
BITMAP
00
ENDCHAR
STARTCHAR exclamdown
ENCODING 161
SWIDTH 424 0
DWIDTH 7 0
BBX 7 11 0 0
BITMAP
1A80
7DF0
FEF8
FDF8
FDF8
FDF8
FDF8
FEF8
FFF8
BFF4
1F90
ENDCHAR
STARTCHAR cent
ENCODING 162
SWIDTH 578 0
DWIDTH 9 0
BBX 10 11 0 0
BITMAP
1AA900
7F6F80
FC5BC0
FDBFD0
FDBFD0
FDBFD0
FC5BD0
FF6FD0
FFFFD0
BFFF80
1FFE00
ENDCHAR
STARTCHAR sterling
ENCODING 163
SWIDTH 578 0
DWIDTH 9 0
BBX 10 11 0 0
BITMAP
1AA900
7E0B80
FDA7C0
FDBFD0
FC5FD0
FDBFD0
FDABD0
FEABD0
FFFFD0
BFFF80
1FFE00
ENDCHAR
STARTCHAR currency
ENCODING 164
SWIDTH 578 0
DWIDTH 9 0
BBX 10 11 0 0
BITMAP
1AA900
79A780
FDA7C0
FDF7D0
FDF7D0
F957D0
FFFFD0
FFFFD0
FFFFD0
BFFF80
1FFE00
ENDCHAR
STARTCHAR yen
ENCODING 165
SWIDTH 578 0
DWIDTH 9 0
BBX 10 11 0 0
BITMAP
1AA900
7AF380
FCEBC0
FD8FD0
FE1FD0
FD1BD0
FE1FD0
FFBFD0
FFFFD0
BFFF80
1FFE00
ENDCHAR
STARTCHAR brokenbar
ENCODING 166
SWIDTH 484 0
DWIDTH 8 0
BBX 8 11 0 0
BITMAP
1AA0
7DBC
FDBE
FEBE
FEFE
FDBE
FDBE
FEFE
FFFE
BFFD
1FE4
ENDCHAR
STARTCHAR section
ENCODING 167
SWIDTH 578 0
DWIDTH 9 0
BBX 10 11 0 0
BITMAP
1AA900
7D5780
FAFFC0
FD5FD0
FDEBD0
FE5BD0
FFF7D0
FEA7D0
FEAFD0
BFFF80
1FFE00
ENDCHAR
STARTCHAR dieresis
ENCODING 168
SWIDTH 388 0
DWIDTH 6 0
BBX 7 5 0 0
BITMAP
1A40
BFE0
EAB4
EBB0
6A90
ENDCHAR
STARTCHAR copyright
ENCODING 169
SWIDTH 578 0
DWIDTH 9 0
BBX 10 11 0 0
BITMAP
1AA900
795780
F659C0
DDFE90
DDFF90
DDFE90
EA5DD0
FAA6D0
FFAFD0
BFFF80
1FFE00
ENDCHAR
STARTCHAR ordfeminine
ENCODING 170
SWIDTH 578 0
DWIDTH 9 0
BBX 10 11 0 0
BITMAP
1AA900
7E5780
FFF3C0
FE53D0
FDA3D0
FC97D0
FEAFD0
FFFFD0
FFFFD0
BFFF80
1FFE00
ENDCHAR
STARTCHAR guillemotleft
ENCODING 171
SWIDTH 578 0
DWIDTH 9 0
BBX 10 11 0 0
BITMAP
1AA900
7FFF80
FEABC0
FDDFD0
F77FD0
FAAFD0
FEDFD0
FFBBD0
FFFFD0
BFFF80
1FFE00
ENDCHAR
STARTCHAR uni00AD
ENCODING 173
SWIDTH 428 0
DWIDTH 7 0
BBX 7 11 0 0
BITMAP
1A80
7FF4
FFF8
F57C
FFFC
FFFC
FFFC
FFFC
FFF8
BFF4
1F90
ENDCHAR
STARTCHAR registered
ENCODING 174
SWIDTH 578 0
DWIDTH 9 0
BBX 10 11 0 0
BITMAP
1AA900
795780
F659C0
DDEA90
DD5B90
DDEA90
EAF9D0
FAA6D0
FFAFD0
BFFF80
1FFE00
ENDCHAR
STARTCHAR macron
ENCODING 175
SWIDTH 428 0
DWIDTH 7 0
BBX 7 5 0 0
BITMAP
1A80
7FF4
FAB8
FAB8
7FF4
ENDCHAR
STARTCHAR degree
ENCODING 176
SWIDTH 428 0
DWIDTH 7 0
BBX 7 11 0 0
BITMAP
1A80
7574
F778
F5BC
FFFC
FFFC
FFFC
FFFC
FFF8
BFF4
1F90
ENDCHAR
STARTCHAR plusminus
ENCODING 177
SWIDTH 428 0
DWIDTH 7 0
BBX 7 11 0 0
BITMAP
1A80
7DF4
E8A8
F8BC
FDFC
F5BC
FABC
FFFC
FFF8
BFF4
1F90
ENDCHAR
STARTCHAR uni00B2
ENCODING 178
SWIDTH 578 0
DWIDTH 9 0
BBX 10 11 0 0
BITMAP
1AA900
7D0B80
FE9BC0
FD6FD0
FC5FD0
FFAFD0
FFFFD0
FFFFD0
FFFFD0
BFFF80
1FFE00
ENDCHAR
STARTCHAR uni00B3
ENCODING 179
SWIDTH 578 0
DWIDTH 9 0
BBX 10 11 0 0
BITMAP
1AA900
7D0780
FFA3C0
FFA3D0
FD57D0
FFAFD0
FFFFD0
FFFFD0
FFFFD0
BFFF80
1FFE00
ENDCHAR
STARTCHAR acute
ENCODING 180
SWIDTH 308 0
DWIDTH 5 0
BBX 5 6 0 0
BITMAP
0500
7F80
B7C0
F740
EF00
6900
ENDCHAR
STARTCHAR uni00B5
ENCODING 181
SWIDTH 578 0
DWIDTH 9 0
BBX 10 11 0 0
BITMAP
1AA900
77F680
F7F6C0
F7F6D0
F7F6D0
F7F6D0
F5A7D0
F6ABD0
FBFFD0
BFFF80
1FFE00
ENDCHAR
STARTCHAR paragraph
ENCODING 182
SWIDTH 578 0
DWIDTH 9 0
BBX 10 11 0 0
BITMAP
1AA900
791780
F42BC0
F82BD0
FEABD0
FFEBD0
FFEBD0
FFFFD0
FFFFD0
BFFF80
1FFE00
ENDCHAR
STARTCHAR periodcentered
ENCODING 183
SWIDTH 428 0
DWIDTH 7 0
BBX 7 11 0 0
BITMAP
1A80
7FF4
FFF8
FCFC
FFFC
FFFC
FFFC
FFFC
FFF8
BFF4
1F90
ENDCHAR
STARTCHAR cedilla
ENCODING 184
SWIDTH 101 0
DWIDTH 2 0
BBX 2 3 0 -3
BITMAP
A0
90
50
ENDCHAR
STARTCHAR uni00B9
ENCODING 185
SWIDTH 578 0
DWIDTH 9 0
BBX 10 11 0 0
BITMAP
1AA900
7E2F80
FF6FC0
FF6FD0
FF6FD0
FFFFD0
FFFFD0
FFFFD0
FFFFD0
BFFF80
1FFE00
ENDCHAR
STARTCHAR ordmasculine
ENCODING 186
SWIDTH 578 0
DWIDTH 9 0
BBX 10 11 0 0
BITMAP
1AA900
7D5780
FDF6C0
FDF6D0
FDF6D0
FCA6D0
FEABD0
FFFFD0
FFFFD0
BFFF80
1FFE00
ENDCHAR
STARTCHAR guillemotright
ENCODING 187
SWIDTH 578 0
DWIDTH 9 0
BBX 10 11 0 0
BITMAP
1AA900
7FFF80
FEAFC0
FEAFD0
FF77D0
FF6BD0
FDDFD0
FABFD0
FFFFD0
BFFF80
1FFE00
ENDCHAR
STARTCHAR onequarter
ENCODING 188
SWIDTH 578 0
DWIDTH 9 0
BBX 10 11 0 0
BITMAP
1AA900
536F80
F77FC0
F76ED0
F69DD0
FD8DD0
FDD450
FEFDD0
FFFED0
BFFF80
1FFE00
ENDCHAR
STARTCHAR onehalf
ENCODING 189
SWIDTH 578 0
DWIDTH 9 0
BBX 10 11 0 0
BITMAP
1AA900
536F80
F77FC0
F765D0
F6AD90
FD95D0
FDCAD0
FEEAD0
FFFFD0
BFFF80
1FFE00
ENDCHAR
STARTCHAR threequarters
ENCODING 190
SWIDTH 578 0
DWIDTH 9 0
BBX 10 11 0 0
BITMAP
1AA900
536F80
F77FC0
F76590
F6AE50
FDB550
FDD950
FEEAD0
FFFFD0
BFFF80
1FFE00
ENDCHAR
STARTCHAR questiondown
ENCODING 191
SWIDTH 578 0
DWIDTH 9 0
BBX 10 11 0 0
BITMAP
1AA900
7FEF80
FFEFC0
FE5FD0
FDBFD0
FDFFD0
FDA7D0
FFAFD0
FFFFD0
BFFF80
1FFE00
ENDCHAR
STARTCHAR Agrave
ENCODING 192
SWIDTH 578 0
DWIDTH 9 0
BBX 10 16 0 0
BITMAP
014000
1FE000
1DB000
0F7400
07B400
1BF900
7D1780
FDF3C0
F9F7D0
F853D0
FAF6D0
F6F6D0
FBFAD0
FFFFD0
BFFF80
1FFE00
ENDCHAR
STARTCHAR Aacute
ENCODING 193
SWIDTH 578 0
DWIDTH 9 0
BBX 10 16 0 0
BITMAP
005400
01FE00
02DE00
03AD00
03B800
1BF900
7D1780
FDF3C0
F9F7D0
F853D0
FAF6D0
F6F6D0
FBFAD0
FFFFD0
BFFF80
1FFE00
ENDCHAR
STARTCHAR Acircumflex
ENCODING 194
SWIDTH 578 0
DWIDTH 9 0
BBX 10 16 0 0
BITMAP
01A000
03F800
076C00
0B9D00
0EEE00
1FFE00
7D1780
FDF3C0
F9F7D0
F853D0
FAF6D0
F6F6D0
FBFAD0
FFFFD0
BFFF80
1FFE00
ENDCHAR
STARTCHAR Atilde
ENCODING 195
SWIDTH 578 0
DWIDTH 9 0
BBX 10 15 0 0
BITMAP
07F900
1FFF00
2FFF40
1D5B40
1FFF00
7D1780
FDF3C0
F9F7D0
F853D0
FAF6D0
F6F6D0
FBFAD0
FFFFD0
BFFF80
1FFE00
ENDCHAR
STARTCHAR Adieresis
ENCODING 196
SWIDTH 578 0
DWIDTH 9 0
BBX 10 15 0 0
BITMAP
01A400
0BFD00
1EAB00
0EEF00
1FFD00
7D1780
FDF3C0
F9F7D0
F853D0
FAF6D0
F6F6D0
FBFAD0
FFFFD0
BFFF80
1FFE00
ENDCHAR
STARTCHAR Aring
ENCODING 197
SWIDTH 578 0
DWIDTH 9 0
BBX 10 15 0 0
BITMAP
02F400
0B6D00
0DDE00
0E5E00
1FFE00
7D1780
FDF3C0
F9F7D0
F853D0
FAF6D0
F6F6D0
FBFAD0
FFFFD0
BFFF80
1FFE00
ENDCHAR
STARTCHAR AE
ENCODING 198
SWIDTH 578 0
DWIDTH 9 0
BBX 10 11 0 0
BITMAP
1AA900
780680
F6AFC0
F6ABD0
F796D0
F26FD0
F25BD0
FBABD0
FFFFD0
BFFF80
1FFE00
ENDCHAR
STARTCHAR Ccedilla
ENCODING 199
SWIDTH 578 0
DWIDTH 9 0
BBX 10 11 0 0
BITMAP
1AA900
785B80
F6FFC0
F6FFD0
F6FFD0
F6FFD0
F5ABD0
FE5BD0
FE7FD0
BE7F80
1FFE00
ENDCHAR
STARTCHAR Egrave
ENCODING 200
SWIDTH 578 0
DWIDTH 9 0
BBX 10 16 0 0
BITMAP
014000
0FE000
1EB000
0F7400
07B800
1BF900
7C5780
FDFFC0
FDAFD0
FC5BD0
FDFFD0
FDABD0
FEABD0
FFFFD0
BFFF80
1FFE00
ENDCHAR
STARTCHAR Eacute
ENCODING 201
SWIDTH 578 0
DWIDTH 9 0
BBX 10 16 0 0
BITMAP
001400
00FE00
01DF00
02DE00
03BC00
1BFD00
7C5780
FDFFC0
FDAFD0
FC5BD0
FDFFD0
FDABD0
FEABD0
FFFFD0
BFFF80
1FFE00
ENDCHAR
STARTCHAR Ecircumflex
ENCODING 202
SWIDTH 578 0
DWIDTH 9 0
BBX 10 16 0 0
BITMAP
00A000
02F800
076D00
0B5E00
0FFE00
1FFE00
7C5780
FDFFC0
FDAFD0
FC5BD0
FDFFD0
FDABD0
FEABD0
FFFFD0
BFFF80
1FFE00
ENDCHAR
STARTCHAR Edieresis
ENCODING 203
SWIDTH 578 0
DWIDTH 9 0
BBX 10 15 0 0
BITMAP
01A400
0BFE00
0EAB00
0EAB00
1BFE00
7C5780
FDFFC0
FDAFD0
FC5BD0
FDFFD0
FDABD0
FEABD0
FFFFD0
BFFF80
1FFE00
ENDCHAR
STARTCHAR Igrave
ENCODING 204
SWIDTH 578 0
DWIDTH 9 0
BBX 10 16 0 0
BITMAP
014000
0FF000
1E7400
0B7400
07B800
1BF900
790680
FFAFC0
FFAFD0
FFAFD0
FFAFD0
FE5BD0
FEABD0
FFFFD0
BFFF80
1FFE00
ENDCHAR
STARTCHAR Iacute
ENCODING 205
SWIDTH 578 0
DWIDTH 9 0
BBX 10 16 0 0
BITMAP
001400
00FE00
01DF00
02DE00
03EC00
1BFD00
790680
FFAFC0
FFAFD0
FFAFD0
FFAFD0
FE5BD0
FEABD0
FFFFD0
BFFF80
1FFE00
ENDCHAR
STARTCHAR Icircumflex
ENCODING 206
SWIDTH 578 0
DWIDTH 9 0
BBX 10 16 0 0
BITMAP
00A400
02FC00
079D00
0B6E00
0BBF00
1FFE00
790680
FFAFC0
FFAFD0
FFAFD0
FFAFD0
FE5BD0
FEABD0
FFFFD0
BFFF80
1FFE00
ENDCHAR
STARTCHAR Idieresis
ENCODING 207
SWIDTH 578 0
DWIDTH 9 0
BBX 10 15 0 0
BITMAP
01A400
0BFE00
0EAB00
0EAB00
1BFE00
790680
FFAFC0
FFAFD0
FFAFD0
FFAFD0
FE5BD0
FEABD0
FFFFD0
BFFF80
1FFE00
ENDCHAR
STARTCHAR Eth
ENCODING 208
SWIDTH 578 0
DWIDTH 9 0
BBX 10 11 0 0
BITMAP
1AA900
785280
FAFAC0
FAFAD0
F5FAD0
FAFAD0
F9A6D0
FAABD0
FFFFD0
BFFF80
1FFE00
ENDCHAR
STARTCHAR Ntilde
ENCODING 209
SWIDTH 578 0
DWIDTH 9 0
BBX 10 15 0 0
BITMAP
07F800
1FFE00
2FFF00
2D4B00
1FFF00
785780
FAF6C0
FAF6D0
FAF6D0
FAF6D0
FAF6D0
FBFBD0
FFFFD0
BFFF80
1FFE00
ENDCHAR
STARTCHAR Ograve
ENCODING 210
SWIDTH 578 0
DWIDTH 9 0
BBX 10 16 0 0
BITMAP
014000
0FE000
1EB000
0F7400
07B800
1BF900
785280
FAFAC0
FAFAD0
FAFAD0
FAFAD0
F9A6D0
FEABD0
FFFFD0
BFFF80
1FFE00
ENDCHAR
STARTCHAR Oacute
ENCODING 211
SWIDTH 578 0
DWIDTH 9 0
BBX 10 16 0 0
BITMAP
001400
01FE00
02DF00
02DD00
03BC00
1BFD00
785280
FAFAC0
FAFAD0
FAFAD0
FAFAD0
F9A6D0
FEABD0
FFFFD0
BFFF80
1FFE00
ENDCHAR
STARTCHAR Ocircumflex
ENCODING 212
SWIDTH 578 0
DWIDTH 9 0
BBX 10 16 0 0
BITMAP
01A000
03F800
076D00
0B9E00
0FEE00
1FFE00
785280
FAFAC0
FAFAD0
FAFAD0
FAFAD0
F9A6D0
FEABD0
FFFFD0
BFFF80
1FFE00
ENDCHAR
STARTCHAR Otilde
ENCODING 213
SWIDTH 578 0
DWIDTH 9 0
BBX 10 15 0 0
BITMAP
07FD00
0FFF00
1FFF40
1D5740
1FFF00
785280
FAFAC0
FAFAD0
FAFAD0
FAFAD0
F9A6D0
FEABD0
FFFFD0
BFFF80
1FFE00
ENDCHAR
STARTCHAR Odieresis
ENCODING 214
SWIDTH 578 0
DWIDTH 9 0
BBX 10 15 0 0
BITMAP
01A400
0BFE00
0EAB00
0EEB00
1FFE00
785280
FAFAC0
FAFAD0
FAFAD0
FAFAD0
F9A6D0
FEABD0
FFFFD0
BFFF80
1FFE00
ENDCHAR
STARTCHAR multiply
ENCODING 215
SWIDTH 578 0
DWIDTH 9 0
BBX 10 11 0 0
BITMAP
1AA900
7FFF80
FFFFC0
FE5FD0
FF5FD0
FEEBD0
FFFFD0
FFFFD0
FFFFD0
BFFF80
1FFE00
ENDCHAR
STARTCHAR Oslash
ENCODING 216
SWIDTH 578 0
DWIDTH 9 0
BBX 10 11 0 0
BITMAP
1AA900
785380
F6E2C0
F6DAD0
F67AD0
F5BAD0
F8A6D0
FEABD0
FFFFD0
BFFF80
1FFE00
ENDCHAR
STARTCHAR Ugrave
ENCODING 217
SWIDTH 578 0
DWIDTH 9 0
BBX 10 16 0 0
BITMAP
014000
0FE000
1EB000
0F7400
07B800
1BF900
7AFA80
FAFAC0
FAFAD0
FAFAD0
FAFAD0
F9A6D0
FEABD0
FFFFD0
BFFF80
1FFE00
ENDCHAR
STARTCHAR Uacute
ENCODING 218
SWIDTH 578 0
DWIDTH 9 0
BBX 10 16 0 0
BITMAP
001400
00FE00
01DF00
02DE00
03BC00
1BFD00
7AFA80
FAFAC0
FAFAD0
FAFAD0
FAFAD0
F9A6D0
FEABD0
FFFFD0
BFFF80
1FFE00
ENDCHAR
STARTCHAR Ucircumflex
ENCODING 219
SWIDTH 578 0
DWIDTH 9 0
BBX 10 16 0 0
BITMAP
00A000
02F800
076D00
0B5E00
0FFE00
1FFE00
7AFA80
FAFAC0
FAFAD0
FAFAD0
FAFAD0
F9A6D0
FEABD0
FFFFD0
BFFF80
1FFE00
ENDCHAR
STARTCHAR Udieresis
ENCODING 220
SWIDTH 578 0
DWIDTH 9 0
BBX 10 15 0 0
BITMAP
01A400
0BFE00
0EAB00
0EAB00
1BFE00
7AFA80
FAFAC0
FAFAD0
FAFAD0
FAFAD0
F9A6D0
FEABD0
FFFFD0
BFFF80
1FFE00
ENDCHAR
STARTCHAR Yacute
ENCODING 221
SWIDTH 578 0
DWIDTH 9 0
BBX 10 16 0 0
BITMAP
001400
00FE00
02DF00
02DD00
03BC00
1BFD00
79F780
FDA7C0
FE5BD0
FF1FD0
FF6FD0
FFAFD0
FFAFD0
FFFFD0
BFFF80
1FFE00
ENDCHAR
STARTCHAR Thorn
ENCODING 222
SWIDTH 578 0
DWIDTH 9 0
BBX 10 11 0 0
BITMAP
19A900
7DFF80
FC07C0
FDF6D0
FDA6D0
FC57D0
FDFFD0
FEFFD0
FFFFD0
BFFF80
1FFE00
ENDCHAR
STARTCHAR germandbls
ENCODING 223
SWIDTH 578 0
DWIDTH 9 0
BBX 10 11 0 0
BITMAP
1AA900
784780
FAF7C0
FAE7D0
FAE6D0
FAFAD0
FAA6D0
FBABD0
FFFFD0
BFFF80
1FFE00
ENDCHAR
STARTCHAR agrave
ENCODING 224
SWIDTH 578 0
DWIDTH 9 0
BBX 10 16 0 0
BITMAP
014000
0FE000
1EB000
0F7400
07B800
1BF900
7C5780
FFF7C0
FFF7D0
F807D0
F7F7D0
F5A7D0
FEABD0
FFFFD0
BFFF80
1FFE00
ENDCHAR
STARTCHAR aacute
ENCODING 225
SWIDTH 578 0
DWIDTH 9 0
BBX 10 16 0 0
BITMAP
001400
00FE00
01DF00
02DE00
03BC00
1BFD00
7C5780
FFF7C0
FFF7D0
F807D0
F7F7D0
F5A7D0
FEABD0
FFFFD0
BFFF80
1FFE00
ENDCHAR
STARTCHAR acircumflex
ENCODING 226
SWIDTH 578 0
DWIDTH 9 0
BBX 10 16 0 0
BITMAP
00A000
03F800
076D00
0B5E00
0FFE00
1FFE00
7C5780
FFF7C0
FFF7D0
F807D0
F7F7D0
F5A7D0
FEABD0
FFFFD0
BFFF80
1FFE00
ENDCHAR
STARTCHAR atilde
ENCODING 227
SWIDTH 578 0
DWIDTH 9 0
BBX 10 15 0 0
BITMAP
06FD00
0FFF00
1FFF40
1D5740
1FFF00
7C5780
FFF7C0
FFF7D0
F807D0
F7F7D0
F5A7D0
FEABD0
FFFFD0
BFFF80
1FFE00
ENDCHAR
STARTCHAR adieresis
ENCODING 228
SWIDTH 578 0
DWIDTH 9 0
BBX 10 15 0 0
BITMAP
01A400
0BFE00
0EAB00
0EEB00
1BFE00
7C5780
FFF7C0
FFF7D0
F807D0
F7F7D0
F5A7D0
FEABD0
FFFFD0
BFFF80
1FFE00
ENDCHAR
STARTCHAR aring
ENCODING 229
SWIDTH 578 0
DWIDTH 9 0
BBX 10 15 0 0
BITMAP
02F800
0B6D00
0EAA00
0E5E00
1FFE00
7C5780
FFF7C0
FFF7D0
F807D0
F7F7D0
F5A7D0
FEABD0
FFFFD0
BFFF80
1FFE00
ENDCHAR
STARTCHAR ae
ENCODING 230
SWIDTH 578 0
DWIDTH 9 0
BBX 10 11 0 0
BITMAP
1AA900
780680
F6AFC0
F6ABD0
F796D0
F26FD0
F25BD0
FBABD0
FFFFD0
BFFF80
1FFE00
ENDCHAR
STARTCHAR ccedilla
ENCODING 231
SWIDTH 578 0
DWIDTH 9 0
BBX 10 11 0 0
BITMAP
1AA900
785B80
F6FFC0
F6FFD0
F6FFD0
F6FFD0
F5ABD0
FE1BD0
FE7FD0
BE7F80
1FFE00
ENDCHAR
STARTCHAR egrave
ENCODING 232
SWIDTH 578 0
DWIDTH 9 0
BBX 10 16 0 0
BITMAP
014000
1FE000
1EB000
0F7400
07B800
1BF900
785780
F6F3C0
F553D0
F6ABD0
F6FFD0
F95BD0
FEAFD0
FFFFD0
BFFF80
1FFE00
ENDCHAR
STARTCHAR eacute
ENCODING 233
SWIDTH 578 0
DWIDTH 9 0
BBX 10 16 0 0
BITMAP
005400
01FD00
02DE00
03AD00
03B800
1BF900
785780
F6F3C0
F553D0
F6ABD0
F6FFD0
F95BD0
FEAFD0
FFFFD0
BFFF80
1FFE00
ENDCHAR
STARTCHAR ecircumflex
ENCODING 234
SWIDTH 578 0
DWIDTH 9 0
BBX 10 16 0 0
BITMAP
01A000
07F400
0B6C00
0E9D00
1EED00
1FFD00
785780
F6F3C0
F553D0
F6ABD0
F6FFD0
F95BD0
FEAFD0
FFFFD0
BFFF80
1FFE00
ENDCHAR
STARTCHAR edieresis
ENCODING 235
SWIDTH 578 0
DWIDTH 9 0
BBX 10 15 0 0
BITMAP
019000
0FFD00
1DDE00
1EEE00
1FFD00
785780
F6F3C0
F553D0
F6ABD0
F6FFD0
F95BD0
FEAFD0
FFFFD0
BFFF80
1FFE00
ENDCHAR
STARTCHAR igrave
ENCODING 236
SWIDTH 578 0
DWIDTH 9 0
BBX 10 16 0 0
BITMAP
014000
0FE000
1EB000
0B7400
07B800
1BF900
790680
FFAFC0
FFAFD0
FFAFD0
FFAFD0
FE5BD0
FEABD0
FFFFD0
BFFF80
1FFE00
ENDCHAR
STARTCHAR iacute
ENCODING 237
SWIDTH 578 0
DWIDTH 9 0
BBX 10 16 0 0
BITMAP
001400
00FE00
01DF00
02DE00
03BC00
1BFD00
790680
FFAFC0
FFAFD0
FFAFD0
FFAFD0
FE5BD0
FEABD0
FFFFD0
BFFF80
1FFE00
ENDCHAR
STARTCHAR icircumflex
ENCODING 238
SWIDTH 578 0
DWIDTH 9 0
BBX 10 16 0 0
BITMAP
00A400
02F800
075D00
0B5E00
0FFF00
1FFE00
790680
FFAFC0
FFAFD0
FFAFD0
FFAFD0
FE5BD0
FEABD0
FFFFD0
BFFF80
1FFE00
ENDCHAR
STARTCHAR idieresis
ENCODING 239
SWIDTH 578 0
DWIDTH 9 0
BBX 10 15 0 0
BITMAP
01A400
0BFE00
0EAB00
0EAB00
1BFE00
790680
FFAFC0
FFAFD0
FFAFD0
FFAFD0
FE5BD0
FEABD0
FFFFD0
BFFF80
1FFE00
ENDCHAR
STARTCHAR eth
ENCODING 240
SWIDTH 578 0
DWIDTH 9 0
BBX 10 11 0 0
BITMAP
1AA900
785280
FAFAC0
FAFAD0
F5FAD0
FAFAD0
F9A6D0
FAABD0
FFFFD0
BFFF80
1FFE00
ENDCHAR
STARTCHAR ntilde
ENCODING 241
SWIDTH 578 0
DWIDTH 9 0
BBX 10 15 0 0
BITMAP
07F800
1FFE00
2FFF00
2D4B00
1FFE00
785780
FAF6C0
FAF6D0
FAF6D0
FAF6D0
FAF6D0
FBFBD0
FFFFD0
BFFF80
1FFE00
ENDCHAR
STARTCHAR oacute
ENCODING 243
SWIDTH 578 0
DWIDTH 9 0
BBX 10 16 0 0
BITMAP
005400
01FE00
02DE00
03AD00
03B800
1BF900
785280
FAFAC0
FAFAD0
FAFAD0
FAFAD0
F9A6D0
FEABD0
FFFFD0
BFFF80
1FFE00
ENDCHAR
STARTCHAR ocircumflex
ENCODING 244
SWIDTH 578 0
DWIDTH 9 0
BBX 10 16 0 0
BITMAP
00A000
02F800
076D00
0B5E00
0FFE00
1FFE00
785280
FAFAC0
FAFAD0
FAFAD0
FAFAD0
F9A6D0
FEABD0
FFFFD0
BFFF80
1FFE00
ENDCHAR
STARTCHAR otilde
ENCODING 245
SWIDTH 578 0
DWIDTH 9 0
BBX 10 15 0 0
BITMAP
07F900
1FFF00
1FFF40
1D5B40
1FFF00
785280
FAFAC0
FAFAD0
FAFAD0
FAFAD0
F9A6D0
FEABD0
FFFFD0
BFFF80
1FFE00
ENDCHAR
STARTCHAR odieresis
ENCODING 246
SWIDTH 578 0
DWIDTH 9 0
BBX 10 15 0 0
BITMAP
01A400
0BFE00
0EAB00
0EAB00
1BFE00
785280
FAFAC0
FAFAD0
FAFAD0
FAFAD0
F9A6D0
FEABD0
FFFFD0
BFFF80
1FFE00
ENDCHAR
STARTCHAR divide
ENCODING 247
SWIDTH 428 0
DWIDTH 7 0
BBX 7 11 0 0
BITMAP
1A80
7EF4
FDF8
F57C
FDFC
FEFC
FFFC
FFFC
FFF8
BFF4
1F90
ENDCHAR
STARTCHAR oslash
ENCODING 248
SWIDTH 578 0
DWIDTH 9 0
BBX 10 11 0 0
BITMAP
1AA900
785380
F6E2C0
F6DAD0
F67AD0
F5BAD0
F8A6D0
FEABD0
FFFFD0
BFFF80
1FFE00
ENDCHAR
STARTCHAR ugrave
ENCODING 249
SWIDTH 578 0
DWIDTH 9 0
BBX 10 16 0 0
BITMAP
014000
0FE000
1EB000
0B7400
07B800
1BF900
7AFA80
FAFAC0
FAFAD0
FAFAD0
FAFAD0
F9A6D0
FEABD0
FFFFD0
BFFF80
1FFE00
ENDCHAR
STARTCHAR uacute
ENCODING 250
SWIDTH 578 0
DWIDTH 9 0
BBX 10 16 0 0
BITMAP
001400
00FE00
01DF00
02DE00
03BC00
1BFD00
7AFA80
FAFAC0
FAFAD0
FAFAD0
FAFAD0
F9A6D0
FEABD0
FFFFD0
BFFF80
1FFE00
ENDCHAR
STARTCHAR ucircumflex
ENCODING 251
SWIDTH 578 0
DWIDTH 9 0
BBX 10 16 0 0
BITMAP
00A400
02F800
075D00
0B5E00
0FFF00
1FFE00
7AFA80
FAFAC0
FAFAD0
FAFAD0
FAFAD0
F9A6D0
FEABD0
FFFFD0
BFFF80
1FFE00
ENDCHAR
STARTCHAR udieresis
ENCODING 252
SWIDTH 578 0
DWIDTH 9 0
BBX 10 15 0 0
BITMAP
01A400
0BFE00
0EAB00
0EAB00
1BFE00
7AFA80
FAFAC0
FAFAD0
FAFAD0
FAFAD0
F9A6D0
FEABD0
FFFFD0
BFFF80
1FFE00
ENDCHAR
STARTCHAR yacute
ENCODING 253
SWIDTH 578 0
DWIDTH 9 0
BBX 10 16 0 0
BITMAP
001400
00FE00
02DF00
02DD00
03BC00
1BFD00
79F780
FDA7C0
FE5BD0
FF1FD0
FF6FD0
FFAFD0
FFAFD0
FFFFD0
BFFF80
1FFE00
ENDCHAR
STARTCHAR thorn
ENCODING 254
SWIDTH 578 0
DWIDTH 9 0
BBX 10 11 0 0
BITMAP
19A900
7DFF80
FC07C0
FDF6D0
FDA6D0
FC57D0
FDFFD0
FEFFD0
FFFFD0
BFFF80
1FFE00
ENDCHAR
STARTCHAR ydieresis
ENCODING 255
SWIDTH 578 0
DWIDTH 9 0
BBX 10 15 0 0
BITMAP
01A400
0BFE00
0EAB00
0EEB00
1BFE00
79F780
FDA7C0
FE5BD0
FF1FD0
FF6FD0
FFAFD0
FFAFD0
FFFFD0
BFFF80
1FFE00
ENDCHAR
STARTCHAR Amacron
ENCODING 256
SWIDTH 578 0
DWIDTH 9 0
BBX 10 15 0 0
BITMAP
01A400
0FFE00
2EAF40
1EAF40
1FFF00
7D1780
FDF3C0
F9F7D0
F853D0
FAF6D0
F6F6D0
FBFAD0
FFFFD0
BFFF80
1FFE00
ENDCHAR
STARTCHAR amacron
ENCODING 257
SWIDTH 578 0
DWIDTH 9 0
BBX 10 15 0 0
BITMAP
01A400
0BFF00
1EAB40
1EAF40
1FFF00
7C5780
FFF7C0
FFF7D0
F807D0
F7F7D0
F5A7D0
FEABD0
FFFFD0
BFFF80
1FFE00
ENDCHAR
STARTCHAR Abreve
ENCODING 258
SWIDTH 578 0
DWIDTH 9 0
BBX 10 15 0 0
BITMAP
01A400
0FFE00
2EFF40
1E5F40
1FFF00
7D1780
FDF3C0
F9F7D0
F853D0
FAF6D0
F6F6D0
FBFAD0
FFFFD0
BFFF80
1FFE00
ENDCHAR
STARTCHAR abreve
ENCODING 259
SWIDTH 578 0
DWIDTH 9 0
BBX 10 15 0 0
BITMAP
01A400
0BFF00
1FFF40
1E5B40
1FFF00
7C5780
FFF7C0
FFF7D0
F807D0
F7F7D0
F5A7D0
FEABD0
FFFFD0
BFFF80
1FFE00
ENDCHAR
STARTCHAR Aogonek
ENCODING 260
SWIDTH 578 0
DWIDTH 9 0
BBX 10 11 0 0
BITMAP
1AA900
7D1780
FDF3C0
F9F7D0
F853D0
FAF6D0
F6F6D0
FBF6D0
FFE7D0
BFF680
1FFE00
ENDCHAR
STARTCHAR aogonek
ENCODING 261
SWIDTH 578 0
DWIDTH 9 0
BBX 10 11 0 0
BITMAP
1AA900
7C5780
FFF3C0
FFF3D0
F803D0
F7F3D0
F5A3D0
FE5BD0
FF7FD0
BF6F80
1FFE00
ENDCHAR
STARTCHAR Cacute
ENCODING 262
SWIDTH 578 0
DWIDTH 9 0
BBX 10 16 0 0
BITMAP
001400
00FE00
01DF00
02DE00
03EC00
1BFD00
785B80
F6FFC0
F6FFD0
F6FFD0
F6FFD0
F5ABD0
FEABD0
FFFFD0
BFFF80
1FFE00
ENDCHAR
STARTCHAR cacute
ENCODING 263
SWIDTH 578 0
DWIDTH 9 0
BBX 10 16 0 0
BITMAP
001400
00FE00
01DF00
02DE00
03BC00
1BFD00
785B80
F6FFC0
F6FFD0
F6FFD0
F6FFD0
F5ABD0
FEABD0
FFFFD0
BFFF80
1FFE00
ENDCHAR
STARTCHAR Ccircumflex
ENCODING 264
SWIDTH 578 0
DWIDTH 9 0
BBX 10 16 0 0
BITMAP
01A000
03F800
076C00
0B9E00
0EEE00
1FFE00
785B80
F6FFC0
F6FFD0
F6FFD0
F6FFD0
F5ABD0
FEABD0
FFFFD0
BFFF80
1FFE00
ENDCHAR
STARTCHAR ccircumflex
ENCODING 265
SWIDTH 578 0
DWIDTH 9 0
BBX 10 16 0 0
BITMAP
01A000
03F800
076C00
0B9D00
0EEE00
1FFE00
785B80
F6FFC0
F6FFD0
F6FFD0
F6FFD0
F5ABD0
FEABD0
FFFFD0
BFFF80
1FFE00
ENDCHAR
STARTCHAR Cdotaccent
ENCODING 266
SWIDTH 578 0
DWIDTH 9 0
BBX 10 15 0 0
BITMAP
06A400
1FFD00
3FBF00
3F7F00
2FFE00
785B80
F6FFC0
F6FFD0
F6FFD0
F6FFD0
F5ABD0
FEABD0
FFFFD0
BFFF80
1FFE00
ENDCHAR
STARTCHAR cdotaccent
ENCODING 267
SWIDTH 578 0
DWIDTH 9 0
BBX 10 15 0 0
BITMAP
01A400
1FFE00
2FBF00
2FBF00
1FFF00
785B80
F6FFC0
F6FFD0
F6FFD0
F6FFD0
F5ABD0
FEABD0
FFFFD0
BFFF80
1FFE00
ENDCHAR
STARTCHAR Ccaron
ENCODING 268
SWIDTH 578 0
DWIDTH 9 0
BBX 10 16 0 0
BITMAP
011000
0FFD00
1DDD00
0EAD00
0B7C00
1FFD00
785B80
F6FFC0
F6FFD0
F6FFD0
F6FFD0
F5ABD0
FEABD0
FFFFD0
BFFF80
1FFE00
ENDCHAR
STARTCHAR ccaron
ENCODING 269
SWIDTH 578 0
DWIDTH 9 0
BBX 10 16 0 0
BITMAP
010000
0FFD00
0EDE00
0FAD00
0B7C00
1BFD00
785B80
F6FFC0
F6FFD0
F6FFD0
F6FFD0
F5ABD0
FEABD0
FFFFD0
BFFF80
1FFE00
ENDCHAR
STARTCHAR Dcaron
ENCODING 270
SWIDTH 578 0
DWIDTH 9 0
BBX 10 16 0 0
BITMAP
011000
0FFD00
1EDD00
0EAD00
0B7C00
1FFD00
785280
FAFAC0
FAFAD0
FAFAD0
FAFAD0
F9A6D0
FAABD0
FFFFD0
BFFF80
1FFE00
ENDCHAR
STARTCHAR dcaron
ENCODING 271
SWIDTH 578 0
DWIDTH 9 0
BBX 10 11 0 0
BITMAP
1AA900
714580
F7E9C0
F7EBD0
F7EBD0
F7EBD0
F29BD0
FAAFD0
FFFFD0
BFFF80
1FFE00
ENDCHAR
STARTCHAR Dcroat
ENCODING 272
SWIDTH 578 0
DWIDTH 9 0
BBX 10 11 0 0
BITMAP
1AA900
785280
FAFAC0
E5BAD0
F5BAD0
FAFAD0
F9A6D0
FAABD0
FFFFD0
BFFF80
1FFE00
ENDCHAR
STARTCHAR dcroat
ENCODING 273
SWIDTH 578 0
DWIDTH 9 0
BBX 10 11 0 0
BITMAP
1AA900
785280
FAFAC0
E5BAD0
F5BAD0
FAFAD0
F9A6D0
FAABD0
FFFFD0
BFFF80
1FFE00
ENDCHAR
STARTCHAR Emacron
ENCODING 274
SWIDTH 578 0
DWIDTH 9 0
BBX 10 15 0 0
BITMAP
01A400
0BFF00
1EAB40
1EAF40
1FFF00
7C5780
FDFFC0
FDAFD0
FC5BD0
FDFFD0
FDABD0
FEABD0
FFFFD0
BFFF80
1FFE00
ENDCHAR
STARTCHAR emacron
ENCODING 275
SWIDTH 578 0
DWIDTH 9 0
BBX 10 15 0 0
BITMAP
02A400
1FFE00
2EAF00
2EAF00
1FFE00
785780
F6F3C0
F553D0
F6ABD0
F6FFD0
F95BD0
FEAFD0
FFFFD0
BFFF80
1FFE00
ENDCHAR
STARTCHAR Ebreve
ENCODING 276
SWIDTH 578 0
DWIDTH 9 0
BBX 10 15 0 0
BITMAP
01A400
0BFF00
1FFF40
1E5B40
1FFF00
7C5780
FDFFC0
FDAFD0
FC5BD0
FDFFD0
FDABD0
FEABD0
FFFFD0
BFFF80
1FFE00
ENDCHAR
STARTCHAR ebreve
ENCODING 277
SWIDTH 578 0
DWIDTH 9 0
BBX 10 15 0 0
BITMAP
02A400
1FFE00
2EEF00
2D5F00
1FFE00
785780
F6F3C0
F553D0
F6ABD0
F6FFD0
F95BD0
FEAFD0
FFFFD0
BFFF80
1FFE00
ENDCHAR
STARTCHAR Edotaccent
ENCODING 278
SWIDTH 578 0
DWIDTH 9 0
BBX 10 15 0 0
BITMAP
01A400
0BFF00
1FAF40
1FAF40
1FFF00
7C5780
FDFFC0
FDAFD0
FC5BD0
FDFFD0
FDABD0
FEABD0
FFFFD0
BFFF80
1FFE00
ENDCHAR
STARTCHAR edotaccent
ENCODING 279
SWIDTH 578 0
DWIDTH 9 0
BBX 10 15 0 0
BITMAP
02A400
1FFE00
2FBF00
2FBF00
2FFF00
785780
F6F3C0
F553D0
F6ABD0
F6FFD0
F95BD0
FEAFD0
FFFFD0
BFFF80
1FFE00
ENDCHAR
STARTCHAR Eogonek
ENCODING 280
SWIDTH 578 0
DWIDTH 9 0
BBX 10 11 0 0
BITMAP
1AA900
7C5780
FDFFC0
FDAFD0
FC5BD0
FDFFD0
FDABD0
FE97D0
FFDBD0
BFE780
1FFE00
ENDCHAR
STARTCHAR eogonek
ENCODING 281
SWIDTH 578 0
DWIDTH 9 0
BBX 10 11 0 0
BITMAP
1AA900
785780
F6F3C0
F553D0
F6ABD0
F6FFD0
F95BD0
FE9FD0
FF7FD0
BF9F80
1FFE00
ENDCHAR
STARTCHAR Ecaron
ENCODING 282
SWIDTH 578 0
DWIDTH 9 0
BBX 10 16 0 0
BITMAP
000400
0BFE00
0BAB00
0B5E00
07AD00
1BFD00
7C5780
FDFFC0
FDAFD0
FC5BD0
FDFFD0
FDABD0
FEABD0
FFFFD0
BFFF80
1FFE00
ENDCHAR
STARTCHAR ecaron
ENCODING 283
SWIDTH 578 0
DWIDTH 9 0
BBX 10 16 0 0
BITMAP
011000
0FFD00
1EDD00
0EAD00
0B7C00
1FFD00
785780
F6F3C0
F553D0
F6ABD0
F6FFD0
F95BD0
FEAFD0
FFFFD0
BFFF80
1FFE00
ENDCHAR
STARTCHAR Gcircumflex
ENCODING 284
SWIDTH 578 0
DWIDTH 9 0
BBX 10 16 0 0
BITMAP
01A000
03F800
076C00
0E9D00
0EEE00
1FFE00
7D5780
F9FFC0
F9FFD0
F9D2D0
F9FAD0
F9A6D0
FEABD0
FFFFD0
BFFF80
1FFE00
ENDCHAR
STARTCHAR gcircumflex
ENCODING 285
SWIDTH 578 0
DWIDTH 9 0
BBX 10 16 0 0
BITMAP
01A000
03F800
076C00
0E9D00
0EEE00
1FFE00
7D5780
F9FFC0
F9FFD0
F9D2D0
F9FAD0
F9A6D0
FEABD0
FFFFD0
BFFF80
1FFE00
ENDCHAR
STARTCHAR Gbreve
ENCODING 286
SWIDTH 578 0
DWIDTH 9 0
BBX 10 15 0 0
BITMAP
01A400
1FFE00
2EFF00
2E5F00
1FFE00
7D5780
F9FFC0
F9FFD0
F9D2D0
F9FAD0
F9A6D0
FEABD0
FFFFD0
BFFF80
1FFE00
ENDCHAR
STARTCHAR gbreve
ENCODING 287
SWIDTH 578 0
DWIDTH 9 0
BBX 10 15 0 0
BITMAP
02A400
1FFE00
2EEF00
2D5F00
1FFE00
7D5780
F9FFC0
F9FFD0
F9D2D0
F9FAD0
F9A6D0
FEABD0
FFFFD0
BFFF80
1FFE00
ENDCHAR
STARTCHAR Gdotaccent
ENCODING 288
SWIDTH 578 0
DWIDTH 9 0
BBX 10 15 0 0
BITMAP
02A400
1FFE00
2FBF00
2FBF00
2FFF00
7D5780
F9FFC0
F9FFD0
F9D2D0
F9FAD0
F9A6D0
FEABD0
FFFFD0
BFFF80
1FFE00
ENDCHAR
STARTCHAR gdotaccent
ENCODING 289
SWIDTH 578 0
DWIDTH 9 0
BBX 10 15 0 0
BITMAP
02A400
1FFE00
2FBF00
2FBF00
2FFF00
7D5780
F9FFC0
F9FFD0
F9D2D0
F9FAD0
F9A6D0
FEABD0
FFFFD0
BFFF80
1FFE00
ENDCHAR
STARTCHAR Gcommaaccent
ENCODING 290
SWIDTH 578 0
DWIDTH 9 0
BBX 10 11 0 0
BITMAP
1AA900
7D5780
F9FFC0
F9FFD0
F9D2D0
F9FAD0
F9A6D0
FEABD0
FF9FD0
BFEF80
1FFE00
ENDCHAR
STARTCHAR gcommaaccent
ENCODING 291
SWIDTH 578 0
DWIDTH 9 0
BBX 10 11 0 0
BITMAP
1AA900
7D5780
F9FFC0
F9FFD0
F9D2D0
F9FAD0
F9A6D0
FEABD0
FF9FD0
BFEF80
1FFE00
ENDCHAR
STARTCHAR Hcircumflex
ENCODING 292
SWIDTH 578 0
DWIDTH 9 0
BBX 10 16 0 0
BITMAP
01A000
03F800
076C00
0A9D00
0EEE00
1FFE00
7AFA80
FAFAC0
F9A6D0
F956D0
FAFAD0
FAFAD0
FAFED0
FFFFD0
BFFF80
1FFE00
ENDCHAR
STARTCHAR hcircumflex
ENCODING 293
SWIDTH 578 0
DWIDTH 9 0
BBX 10 16 0 0
BITMAP
01A000
03F800
076C00
0B9E00
0EEE00
1FFE00
7AFA80
FAFAC0
F9A6D0
F956D0
FAFAD0
FAFAD0
FAFED0
FFFFD0
BFFF80
1FFE00
ENDCHAR
STARTCHAR Hbar
ENCODING 294
SWIDTH 578 0
DWIDTH 9 0
BBX 10 15 0 0
BITMAP
01A400
1FFE00
2EAF00
2EAF00
1FFE00
7AFA80
FAFAC0
F9A6D0
F956D0
FAFAD0
FAFAD0
FAFED0
FFFFD0
BFFF80
1FFE00
ENDCHAR
STARTCHAR hbar
ENCODING 295
SWIDTH 578 0
DWIDTH 9 0
BBX 10 11 0 0
BITMAP
1AA900
7AFA80
F555C0
F9A6D0
F956D0
FAFAD0
FAFAD0
FAFED0
FFFFD0
BFFF80
1FFE00
ENDCHAR
STARTCHAR Itilde
ENCODING 296
SWIDTH 578 0
DWIDTH 9 0
BBX 10 15 0 0
BITMAP
06FD00
0FFF40
1FFF40
1D5740
1FFF00
790680
FFAFC0
FFAFD0
FFAFD0
FFAFD0
FE5BD0
FEABD0
FFFFD0
BFFF80
1FFE00
ENDCHAR
STARTCHAR itilde
ENCODING 297
SWIDTH 578 0
DWIDTH 9 0
BBX 10 15 0 0
BITMAP
06FD00
0FFF00
1FFF40
1D5740
1FFF00
790680
FFAFC0
FFAFD0
FFAFD0
FFAFD0
FE5BD0
FEABD0
FFFFD0
BFFF80
1FFE00
ENDCHAR
STARTCHAR Imacron
ENCODING 298
SWIDTH 578 0
DWIDTH 9 0
BBX 10 15 0 0
BITMAP
01A400
0FFE00
1EAF40
1EAF40
1FFF00
790680
FFAFC0
FFAFD0
FFAFD0
FFAFD0
FE5BD0
FEABD0
FFFFD0
BFFF80
1FFE00
ENDCHAR
STARTCHAR imacron
ENCODING 299
SWIDTH 578 0
DWIDTH 9 0
BBX 10 15 0 0
BITMAP
01A400
0FFE00
1EAF40
1EAF40
1FFF00
790680
FFAFC0
FFAFD0
FFAFD0
FFAFD0
FE5BD0
FEABD0
FFFFD0
BFFF80
1FFE00
ENDCHAR
STARTCHAR Ibreve
ENCODING 300
SWIDTH 578 0
DWIDTH 9 0
BBX 10 15 0 0
BITMAP
01A400
0BFF00
1FFB40
1F5B40
1FFF00
790680
FFAFC0
FFAFD0
FFAFD0
FFAFD0
FE5BD0
FEABD0
FFFFD0
BFFF80
1FFE00
ENDCHAR
STARTCHAR ibreve
ENCODING 301
SWIDTH 578 0
DWIDTH 9 0
BBX 10 15 0 0
BITMAP
01A400
0BFF00
1FFB40
1E5B40
1FFF00
790680
FFAFC0
FFAFD0
FFAFD0
FFAFD0
FE5BD0
FEABD0
FFFFD0
BFFF80
1FFE00
ENDCHAR
STARTCHAR Iogonek
ENCODING 302
SWIDTH 578 0
DWIDTH 9 0
BBX 10 11 0 0
BITMAP
1AA900
790680
FFAFC0
FFAFD0
FFAFD0
FFAFD0
FE5BD0
FEA6D0
FFEBD0
BFF680
1FFE00
ENDCHAR
STARTCHAR iogonek
ENCODING 303
SWIDTH 578 0
DWIDTH 9 0
BBX 10 11 0 0
BITMAP
1AA900
790680
FFAFC0
FFAFD0
FFAFD0
FFAFD0
FE5BD0
FEA6D0
FFE7D0
BFF680
1FFE00
ENDCHAR
STARTCHAR Idotaccent
ENCODING 304
SWIDTH 578 0
DWIDTH 9 0
BBX 10 15 0 0
BITMAP
01A400
0FFE00
2FBF40
2FBF00
1FFF00
790680
FFAFC0
FFAFD0
FFAFD0
FFAFD0
FE5BD0
FEABD0
FFFFD0
BFFF80
1FFE00
ENDCHAR
STARTCHAR dotlessi
ENCODING 305
SWIDTH 578 0
DWIDTH 9 0
BBX 10 11 0 0
BITMAP
1AA900
790680
FFAFC0
FFAFD0
FFAFD0
FFAFD0
FE5BD0
FEABD0
FFFFD0
BFFF80
1FFE00
ENDCHAR
STARTCHAR IJ
ENCODING 306
SWIDTH 578 0
DWIDTH 9 0
BBX 10 11 0 0
BITMAP
1AA900
507D80
FAFDC0
FAFDD0
FAFDD0
FAFDD0
E5A9D0
EAABD0
FFFFD0
BFFF80
1FFE00
ENDCHAR
STARTCHAR ij
ENCODING 307
SWIDTH 578 0
DWIDTH 9 0
BBX 10 11 0 0
BITMAP
1AA900
507D80
FAFDC0
FAFDD0
FAFDD0
FAFDD0
E5A9D0
EAABD0
FFFFD0
BFFF80
1FFE00
ENDCHAR
STARTCHAR Jcircumflex
ENCODING 308
SWIDTH 578 0
DWIDTH 9 0
BBX 10 16 0 0
BITMAP
01A000
03F800
076D00
0B9E00
0FEE00
1FFE00
7FDF80
FFDFC0
FFDFD0
FFDFD0
FFDFD0
FE8FD0
FEAFD0
FFFFD0
BFFF80
1FFE00
ENDCHAR
STARTCHAR jcircumflex
ENCODING 309
SWIDTH 578 0
DWIDTH 9 0
BBX 10 16 0 0
BITMAP
01A000
03F800
076D00
0B9E00
0FEE00
1FFE00
7FDF80
FFDFC0
FFDFD0
FFDFD0
FFDFD0
FE8FD0
FEAFD0
FFFFD0
BFFF80
1FFE00
ENDCHAR
STARTCHAR Kcommaaccent
ENCODING 310
SWIDTH 578 0
DWIDTH 9 0
BBX 10 11 0 0
BITMAP
1AA900
7DF580
FDD7C0
FD5FD0
FD2FD0
FDDBD0
FDF6D0
FEFED0
FF9FD0
BFEF80
1FFE00
ENDCHAR
STARTCHAR kcommaaccent
ENCODING 311
SWIDTH 578 0
DWIDTH 9 0
BBX 10 11 0 0
BITMAP
1AA900
7DF580
FDD7C0
FD5FD0
FD2FD0
FDDBD0
FDF6D0
FEFED0
FF9FD0
BFEF80
1FFE00
ENDCHAR
STARTCHAR kgreenlandic
ENCODING 312
SWIDTH 578 0
DWIDTH 9 0
BBX 10 11 0 0
BITMAP
1AA900
7DF580
FDD7C0
FD5FD0
FD2FD0
FDDBD0
FDF6D0
FEFED0
FFFFD0
BFFF80
1FFE00
ENDCHAR
STARTCHAR Lacute
ENCODING 313
SWIDTH 578 0
DWIDTH 9 0
BBX 10 16 0 0
BITMAP
005000
03F800
076C00
0B7800
0FB000
1FF900
7EBF80
FEBFC0
FEBFD0
FEBFD0
FEBFD0
FE6BD0
FEABD0
FFFFD0
BFFF80
1FFE00
ENDCHAR
STARTCHAR lacute
ENCODING 314
SWIDTH 578 0
DWIDTH 9 0
BBX 10 16 0 0
BITMAP
005000
03F800
076C00
0B7800
0FB000
1FF900
7EBF80
FEBFC0
FEBFD0
FEBFD0
FEBFD0
FE6BD0
FEABD0
FFFFD0
BFFF80
1FFE00
ENDCHAR
STARTCHAR Lcommaaccent
ENCODING 315
SWIDTH 578 0
DWIDTH 9 0
BBX 10 11 0 0
BITMAP
1AA900
7EBF80
FEBFC0
FEBFD0
FEBFD0
FEBFD0
FE6BD0
FEABD0
FF9FD0
BFEF80
1FFE00
ENDCHAR
STARTCHAR lcommaaccent
ENCODING 316
SWIDTH 578 0
DWIDTH 9 0
BBX 10 11 0 0
BITMAP
1AA900
7EBF80
FEBFC0
FEBFD0
FEBFD0
FEBFD0
FE6BD0
FEABD0
FF9FD0
BFEF80
1FFE00
ENDCHAR
STARTCHAR Lcaron
ENCODING 317
SWIDTH 578 0
DWIDTH 9 0
BBX 10 11 0 0
BITMAP
1AA900
7E9780
FEABC0
FEBFD0
FEBFD0
FEBFD0
FE6BD0
FEABD0
FFFFD0
BFFF80
1FFE00
ENDCHAR
STARTCHAR lcaron
ENCODING 318
SWIDTH 578 0
DWIDTH 9 0
BBX 10 11 0 0
BITMAP
1AA900
7E9780
FEABC0
FEBFD0
FEBFD0
FEBFD0
FE6BD0
FEABD0
FFFFD0
BFFF80
1FFE00
ENDCHAR
STARTCHAR Ldot
ENCODING 319
SWIDTH 578 0
DWIDTH 9 0
BBX 10 11 0 0
BITMAP
1AA900
7EBF80
FEBFC0
FE8FD0
FEBFD0
FEBFD0
FE6BD0
FEABD0
FFFFD0
BFFF80
1FFE00
ENDCHAR
STARTCHAR ldot
ENCODING 320
SWIDTH 578 0
DWIDTH 9 0
BBX 10 11 0 0
BITMAP
1AA900
7EBF80
FEBFC0
FE8FD0
FEBFD0
FEBFD0
FE6BD0
FEABD0
FFFFD0
BFFF80
1FFE00
ENDCHAR
STARTCHAR Lslash
ENCODING 321
SWIDTH 578 0
DWIDTH 9 0
BBX 10 11 0 0
BITMAP
1AA900
7EBF80
FEBFC0
FE7FD0
F9BFD0
FEBFD0
FE6BD0
FEABD0
FFFFD0
BFFF80
1FFE00
ENDCHAR
STARTCHAR lslash
ENCODING 322
SWIDTH 578 0
DWIDTH 9 0
BBX 10 11 0 0
BITMAP
1AA900
7EBF80
FEBFC0
FE7FD0
F9BFD0
FEBFD0
FE6BD0
FEABD0
FFFFD0
BFFF80
1FFE00
ENDCHAR
STARTCHAR Nacute
ENCODING 323
SWIDTH 578 0
DWIDTH 9 0
BBX 10 16 0 0
BITMAP
005400
01FD00
02DE00
03AD00
03B800
1BF900
785780
FAF6C0
FAF6D0
FAF6D0
FAF6D0
FAF6D0
FBFBD0
FFFFD0
BFFF80
1FFE00
ENDCHAR
STARTCHAR nacute
ENCODING 324
SWIDTH 578 0
DWIDTH 9 0
BBX 10 16 0 0
BITMAP
005400
01FD00
02DE00
03AD00
03B800
1BF900
785780
FAF6C0
FAF6D0
FAF6D0
FAF6D0
FAF6D0
FBFBD0
FFFFD0
BFFF80
1FFE00
ENDCHAR
STARTCHAR Ncommaaccent
ENCODING 325
SWIDTH 578 0
DWIDTH 9 0
BBX 10 11 0 0
BITMAP
1AA900
785780
FAF6C0
FAF6D0
FAF6D0
FAF6D0
FAF6D0
FBFBD0
FF9FD0
BFEF80
1FFE00
ENDCHAR
STARTCHAR ncommaaccent
ENCODING 326
SWIDTH 578 0
DWIDTH 9 0
BBX 10 11 0 0
BITMAP
1AA900
785780
FAF6C0
FAF6D0
FAF6D0
FAF6D0
FAF6D0
FBFBD0
FF9FD0
BFEF80
1FFE00
ENDCHAR
STARTCHAR Ncaron
ENCODING 327
SWIDTH 578 0
DWIDTH 9 0
BBX 10 16 0 0
BITMAP
011000
0FFD00
1EDD00
0EAD00
0B7C00
1FFD00
785780
FAF6C0
FAF6D0
FAF6D0
FAF6D0
FAF6D0
FBFBD0
FFFFD0
BFFF80
1FFE00
ENDCHAR
STARTCHAR ncaron
ENCODING 328
SWIDTH 578 0
DWIDTH 9 0
BBX 10 16 0 0
BITMAP
011000
0FFD00
1EDD00
0EAD00
0B7C00
1FFD00
785780
FAF6C0
FAF6D0
FAF6D0
FAF6D0
FAF6D0
FBFBD0
FFFFD0
BFFF80
1FFE00
ENDCHAR
STARTCHAR napostrophe
ENCODING 329
SWIDTH 578 0
DWIDTH 9 0
BBX 10 11 0 0
BITMAP
1AA900
685780
8AF6C0
EAF6D0
FAF6D0
FAF6D0
FAF6D0
FBFBD0
FFFFD0
BFFF80
1FFE00
ENDCHAR
STARTCHAR Eng
ENCODING 330
SWIDTH 578 0
DWIDTH 9 0
BBX 10 11 0 0
BITMAP
1AA900
785780
FAF6C0
FAF6D0
FAF6D0
FAF6D0
FAF6D0
FBF6D0
FFF6D0
BF9780
1FFE00
ENDCHAR
STARTCHAR eng
ENCODING 331
SWIDTH 578 0
DWIDTH 9 0
BBX 10 11 0 0
BITMAP
1AA900
785780
FAF6C0
FAF6D0
FAF6D0
FAF6D0
FAF6D0
FBF6D0
FFF6D0
BF9780
1FFE00
ENDCHAR
STARTCHAR Omacron
ENCODING 332
SWIDTH 578 0
DWIDTH 9 0
BBX 10 15 0 0
BITMAP
01A400
0FFE00
1EAF40
1EAF40
1FFF00
785280
FAFAC0
FAFAD0
FAFAD0
FAFAD0
F9A6D0
FEABD0
FFFFD0
BFFF80
1FFE00
ENDCHAR
STARTCHAR omacron
ENCODING 333
SWIDTH 578 0
DWIDTH 9 0
BBX 10 15 0 0
BITMAP
01A400
0FFE00
1EAF40
1EAF40
1FFF00
785280
FAFAC0
FAFAD0
FAFAD0
FAFAD0
F9A6D0
FEABD0
FFFFD0
BFFF80
1FFE00
ENDCHAR
STARTCHAR Obreve
ENCODING 334
SWIDTH 578 0
DWIDTH 9 0
BBX 10 15 0 0
BITMAP
01A400
0FFE00
1FFF40
1E5B40
1FFF00
785280
FAFAC0
FAFAD0
FAFAD0
FAFAD0
F9A6D0
FEABD0
FFFFD0
BFFF80
1FFE00
ENDCHAR
STARTCHAR obreve
ENCODING 335
SWIDTH 578 0
DWIDTH 9 0
BBX 10 15 0 0
BITMAP
01A400
0FFE00
1FFF40
1E5B40
1FFF00
785280
FAFAC0
FAFAD0
FAFAD0
FAFAD0
F9A6D0
FEABD0
FFFFD0
BFFF80
1FFE00
ENDCHAR
STARTCHAR Ohungarumlaut
ENCODING 336
SWIDTH 578 0
DWIDTH 9 0
BBX 10 16 0 0
BITMAP
006600
00FF80
02DDC0
03AB80
07BB00
1BFE00
785280
FAFAC0
FAFAD0
FAFAD0
FAFAD0
F9A6D0
FEABD0
FFFFD0
BFFF80
1FFE00
ENDCHAR
STARTCHAR ohungarumlaut
ENCODING 337
SWIDTH 578 0
DWIDTH 9 0
BBX 10 16 0 0
BITMAP
006600
00FF80
02DDC0
03AB80
07BB00
1BFE00
785280
FAFAC0
FAFAD0
FAFAD0
FAFAD0
F9A6D0
FEABD0
FFFFD0
BFFF80
1FFE00
ENDCHAR
STARTCHAR OE
ENCODING 338
SWIDTH 578 0
DWIDTH 9 0
BBX 10 11 0 0
BITMAP
1AA900
750680
E7AFC0
E79BD0
E796D0
E7AFD0
F65AD0
FAAAD0
FFFFD0
BFFF80
1FFE00
ENDCHAR
STARTCHAR oe
ENCODING 339
SWIDTH 578 0
DWIDTH 9 0
BBX 10 11 0 0
BITMAP
1AA900
750680
E7AFC0
E79BD0
E796D0
E7AFD0
F65AD0
FAAAD0
FFFFD0
BFFF80
1FFE00
ENDCHAR
STARTCHAR Racute
ENCODING 340
SWIDTH 578 0
DWIDTH 9 0
BBX 10 16 0 0
BITMAP
005400
01FD00
02DE00
03AD00
03B800
1BF900
784780
F9F3C0
F9F7D0
F80BD0
F9F7D0
F9F7D0
FEFBD0
FFFFD0
BFFF80
1FFE00
ENDCHAR
STARTCHAR racute
ENCODING 341
SWIDTH 578 0
DWIDTH 9 0
BBX 10 16 0 0
BITMAP
005400
01FD00
02DE00
03AD00
03B800
1BF900
784780
F9F3C0
F9F7D0
F80BD0
F9F7D0
F9F7D0
FEFBD0
FFFFD0
BFFF80
1FFE00
ENDCHAR
STARTCHAR Rcommaaccent
ENCODING 342
SWIDTH 578 0
DWIDTH 9 0
BBX 10 11 0 0
BITMAP
1AA900
784780
F9F3C0
F9F7D0
F80BD0
F9F7D0
F9F7D0
FEFBD0
FF9FD0
BFEF80
1FFE00
ENDCHAR
STARTCHAR rcommaaccent
ENCODING 343
SWIDTH 578 0
DWIDTH 9 0
BBX 10 11 0 0
BITMAP
1AA900
784780
F9F3C0
F9F7D0
F80BD0
F9F7D0
F9F7D0
FEFBD0
FF9FD0
BFEF80
1FFE00
ENDCHAR
STARTCHAR Rcaron
ENCODING 344
SWIDTH 578 0
DWIDTH 9 0
BBX 10 16 0 0
BITMAP
011000
0FFD00
1EDD00
0EAD00
0B7C00
1FFD00
784780
F9F3C0
F9F7D0
F80BD0
F9F7D0
F9F7D0
FEFBD0
FFFFD0
BFFF80
1FFE00
ENDCHAR
STARTCHAR rcaron
ENCODING 345
SWIDTH 578 0
DWIDTH 9 0
BBX 10 16 0 0
BITMAP
011000
0FFD00
1EDD00
0EAD00
0B7C00
1FFD00
784780
F9F3C0
F9F7D0
F80BD0
F9F7D0
F9F7D0
FEFBD0
FFFFD0
BFFF80
1FFE00
ENDCHAR
STARTCHAR Sacute
ENCODING 346
SWIDTH 578 0
DWIDTH 9 0
BBX 10 16 0 0
BITMAP
001400
00FE00
01DF00
02DE00
03EC00
1BFD00
7D5780
F9FFC0
F9AFD0
FE52D0
FFF6D0
FEA6D0
FEABD0
FFFFD0
BFFF80
1FFE00
ENDCHAR
STARTCHAR sacute
ENCODING 347
SWIDTH 578 0
DWIDTH 9 0
BBX 10 16 0 0
BITMAP
001400
00FE00
01DF00
02DE00
03EC00
1BFD00
7D5780
F9FFC0
F9AFD0
FE52D0
FFF6D0
FEA6D0
FEABD0
FFFFD0
BFFF80
1FFE00
ENDCHAR
STARTCHAR Scircumflex
ENCODING 348
SWIDTH 578 0
DWIDTH 9 0
BBX 10 16 0 0
BITMAP
00A400
02FC00
079D00
0B6E00
0BBB00
1FFE00
7D5780
F9FFC0
F9AFD0
FE52D0
FFF6D0
FEA6D0
FEABD0
FFFFD0
BFFF80
1FFE00
ENDCHAR
STARTCHAR scircumflex
ENCODING 349
SWIDTH 578 0
DWIDTH 9 0
BBX 10 16 0 0
BITMAP
00A400
02FC00
079D00
0B6E00
0BBB00
1FFE00
7D5780
F9FFC0
F9AFD0
FE52D0
FFF6D0
FEA6D0
FEABD0
FFFFD0
BFFF80
1FFE00
ENDCHAR
STARTCHAR Scedilla
ENCODING 350
SWIDTH 578 0
DWIDTH 9 0
BBX 10 11 0 0
BITMAP
1AA900
7D5780
F9FFC0
F9AFD0
FE52D0
FFF6D0
FEA6D0
FE5BD0
FE7FD0
BF6F80
1FFE00
ENDCHAR
STARTCHAR scedilla
ENCODING 351
SWIDTH 578 0
DWIDTH 9 0
BBX 10 11 0 0
BITMAP
1AA900
7D5780
F9FFC0
F9AFD0
FE52D0
FFF6D0
FEA6D0
FE5BD0
FE7FD0
BF6F80
1FFE00
ENDCHAR
STARTCHAR Scaron
ENCODING 352
SWIDTH 578 0
DWIDTH 9 0
BBX 10 16 0 0
BITMAP
000400
07FE00
0BAB00
0B5E00
07AE00
1BFD00
7D5780
F9FFC0
F9AFD0
FE52D0
FFF6D0
FEA6D0
FEABD0
FFFFD0
BFFF80
1FFE00
ENDCHAR
STARTCHAR scaron
ENCODING 353
SWIDTH 578 0
DWIDTH 9 0
BBX 10 16 0 0
BITMAP
000400
07FE00
0BAB00
0B5E00
07AE00
1BFD00
7D5780
F9FFC0
F9AFD0
FE52D0
FFF6D0
FEA6D0
FEABD0
FFFFD0
BFFF80
1FFE00
ENDCHAR
STARTCHAR Tcommaaccent
ENCODING 354
SWIDTH 578 0
DWIDTH 9 0
BBX 10 11 0 0
BITMAP
1AA900
790680
FFAFC0
FFAFD0
FFAFD0
FFAFD0
FFAFD0
FFEFD0
FF9FD0
BFEF80
1FFE00
ENDCHAR
STARTCHAR tcommaaccent
ENCODING 355
SWIDTH 578 0
DWIDTH 9 0
BBX 10 11 0 0
BITMAP
1AA900
790680
FFAFC0
FFAFD0
FFAFD0
FFAFD0
FFAFD0
FFEFD0
FF9FD0
BFEF80
1FFE00
ENDCHAR
STARTCHAR Tcaron
ENCODING 356
SWIDTH 578 0
DWIDTH 9 0
BBX 10 16 0 0
BITMAP
010400
0BFE00
0EAE00
0B5E00
07AD00
1BFD00
790680
FFAFC0
FFAFD0
FFAFD0
FFAFD0
FFAFD0
FFEFD0
FFFFD0
BFFF80
1FFE00
ENDCHAR
STARTCHAR tcaron
ENCODING 357
SWIDTH 578 0
DWIDTH 9 0
BBX 10 11 0 0
BITMAP
1AA900
790680
FFA6C0
FFA6D0
FFAFD0
FFAFD0
FFAFD0
FFEFD0
FFFFD0
BFFF80
1FFE00
ENDCHAR
STARTCHAR Tbar
ENCODING 358
SWIDTH 578 0
DWIDTH 9 0
BBX 10 11 0 0
BITMAP
1AA900
790680
FFAFC0
FFAFD0
FE4BD0
FFAFD0
FFAFD0
FFEFD0
FFFFD0
BFFF80
1FFE00
ENDCHAR
STARTCHAR tbar
ENCODING 359
SWIDTH 578 0
DWIDTH 9 0
BBX 10 11 0 0
BITMAP
1AA900
790680
FFAFC0
FFAFD0
FE4BD0
FFAFD0
FFAFD0
FFEFD0
FFFFD0
BFFF80
1FFE00
ENDCHAR
STARTCHAR Utilde
ENCODING 360
SWIDTH 578 0
DWIDTH 9 0
BBX 10 15 0 0
BITMAP
06FD00
0FFF00
1FFF40
1D5740
1FFF00
7AFA80
FAFAC0
FAFAD0
FAFAD0
FAFAD0
F9A6D0
FEABD0
FFFFD0
BFFF80
1FFE00
ENDCHAR
STARTCHAR utilde
ENCODING 361
SWIDTH 578 0
DWIDTH 9 0
BBX 10 15 0 0
BITMAP
06FD00
0FFF00
1FFF40
1D5740
1FFF00
7AFA80
FAFAC0
FAFAD0
FAFAD0
FAFAD0
F9A6D0
FEABD0
FFFFD0
BFFF80
1FFE00
ENDCHAR
STARTCHAR Umacron
ENCODING 362
SWIDTH 578 0
DWIDTH 9 0
BBX 10 15 0 0
BITMAP
01A400
0BFF00
1EAB40
1EAF40
1FFF00
7AFA80
FAFAC0
FAFAD0
FAFAD0
FAFAD0
F9A6D0
FEABD0
FFFFD0
BFFF80
1FFE00
ENDCHAR
STARTCHAR umacron
ENCODING 363
SWIDTH 578 0
DWIDTH 9 0
BBX 10 15 0 0
BITMAP
01A400
0BFF00
1EAB40
1EAF40
1FFF00
7AFA80
FAFAC0
FAFAD0
FAFAD0
FAFAD0
F9A6D0
FEABD0
FFFFD0
BFFF80
1FFE00
ENDCHAR
STARTCHAR Ubreve
ENCODING 364
SWIDTH 578 0
DWIDTH 9 0
BBX 10 15 0 0
BITMAP
01A400
0BFF00
1FFF40
1E5B40
1FFF00
7AFA80
FAFAC0
FAFAD0
FAFAD0
FAFAD0
F9A6D0
FEABD0
FFFFD0
BFFF80
1FFE00
ENDCHAR
STARTCHAR ubreve
ENCODING 365
SWIDTH 578 0
DWIDTH 9 0
BBX 10 15 0 0
BITMAP
01A400
0BFF00
1FFB40
1E5B40
1FFF00
7AFA80
FAFAC0
FAFAD0
FAFAD0
FAFAD0
F9A6D0
FEABD0
FFFFD0
BFFF80
1FFE00
ENDCHAR
STARTCHAR Uring
ENCODING 366
SWIDTH 578 0
DWIDTH 9 0
BBX 10 15 0 0
BITMAP
02F800
0B6D00
0EAA00
0E5F00
1FFE00
7AFA80
FAFAC0
FAFAD0
FAFAD0
FAFAD0
F9A6D0
FEABD0
FFFFD0
BFFF80
1FFE00
ENDCHAR
STARTCHAR uring
ENCODING 367
SWIDTH 578 0
DWIDTH 9 0
BBX 10 15 0 0
BITMAP
02F800
0B6D00
0EAB00
0E5F00
1FFF00
7AFA80
FAFAC0
FAFAD0
FAFAD0
FAFAD0
F9A6D0
FEABD0
FFFFD0
BFFF80
1FFE00
ENDCHAR
STARTCHAR Uhungarumlaut
ENCODING 368
SWIDTH 581 0
DWIDTH 9 0
BBX 10 16 0 0
BITMAP
002600
00FF80
02DDC0
03AB80
07BB40
1BFE00
7AFA80
FAFAC0
FAFAD0
FAFAD0
FAFAD0
F9A6D0
FEABD0
FFFFD0
BFFF80
1FFE00
ENDCHAR
STARTCHAR uhungarumlaut
ENCODING 369
SWIDTH 582 0
DWIDTH 9 0
BBX 10 16 0 0
BITMAP
001600
00FF80
02DDD0
03AB80
07BB40
1BFE00
7AFA80
FAFAC0
FAFAD0
FAFAD0
FAFAD0
F9A6D0
FEABD0
FFFFD0
BFFF80
1FFE00
ENDCHAR
STARTCHAR Uogonek
ENCODING 370
SWIDTH 578 0
DWIDTH 9 0
BBX 10 11 0 0
BITMAP
1AA900
7AFA80
FAFAC0
FAFAD0
FAFAD0
FAFAD0
F9A6D0
FE5BD0
FF7FD0
BF9F80
1FFE00
ENDCHAR
STARTCHAR uogonek
ENCODING 371
SWIDTH 578 0
DWIDTH 9 0
BBX 10 11 0 0
BITMAP
1AA900
7AFA80
FAFAC0
FAFAD0
FAFAD0
FAFAD0
F9A6D0
FE5BD0
FF7FD0
BF9F80
1FFE00
ENDCHAR
STARTCHAR Wcircumflex
ENCODING 372
SWIDTH 578 0
DWIDTH 9 0
BBX 10 16 0 0
BITMAP
01A000
03F800
076C00
0E9D00
0EEE00
1FFE00
67AD80
F76DC0
F319D0
F359D0
F65AD0
F596D0
FEFBD0
FFFFD0
BFFF80
1FFE00
ENDCHAR
STARTCHAR wcircumflex
ENCODING 373
SWIDTH 578 0
DWIDTH 9 0
BBX 10 16 0 0
BITMAP
01A000
03F800
076C00
0E9D00
0EEE00
1FFE00
67AD80
F76DC0
F319D0
F359D0
F65AD0
F596D0
FEFBD0
FFFFD0
BFFF80
1FFE00
ENDCHAR
STARTCHAR Ycircumflex
ENCODING 374
SWIDTH 578 0
DWIDTH 9 0
BBX 10 16 0 0
BITMAP
00A000
03F800
076D00
0B5E00
0FEE00
1FFE00
79F780
FDA7C0
FE5BD0
FF1FD0
FF6FD0
FFAFD0
FFAFD0
FFFFD0
BFFF80
1FFE00
ENDCHAR
STARTCHAR ycircumflex
ENCODING 375
SWIDTH 578 0
DWIDTH 9 0
BBX 10 16 0 0
BITMAP
00A000
03F800
076D00
0B5E00
0FEE00
1FFE00
79F780
FDA7C0
FE5BD0
FF1FD0
FF6FD0
FFAFD0
FFAFD0
FFFFD0
BFFF80
1FFE00
ENDCHAR
STARTCHAR Ydieresis
ENCODING 376
SWIDTH 578 0
DWIDTH 9 0
BBX 10 15 0 0
BITMAP
01A400
0BFE00
0EAB00
0EEB00
1BFE00
79F780
FDA7C0
FE5BD0
FF1FD0
FF6FD0
FFAFD0
FFAFD0
FFFFD0
BFFF80
1FFE00
ENDCHAR
STARTCHAR Zacute
ENCODING 377
SWIDTH 578 0
DWIDTH 9 0
BBX 10 16 0 0
BITMAP
005000
02FD00
03AD00
077C00
0BB400
1BF900
7D4780
FFDBC0
FF9FD0
FF6FD0
FE7FD0
FCABD0
FEABD0
FFFFD0
BFFF80
1FFE00
ENDCHAR
STARTCHAR zacute
ENCODING 378
SWIDTH 578 0
DWIDTH 9 0
BBX 10 16 0 0
BITMAP
005000
02FD00
03AD00
077C00
0BB400
1BF900
7D4780
FFDBC0
FF9FD0
FF6FD0
FE7FD0
FCABD0
FEABD0
FFFFD0
BFFF80
1FFE00
ENDCHAR
STARTCHAR Zdotaccent
ENCODING 379
SWIDTH 578 0
DWIDTH 9 0
BBX 10 15 0 0
BITMAP
02A400
1FFE00
2FBF00
2FBF00
2FFF00
7D4780
FFDBC0
FF9FD0
FF6FD0
FE7FD0
FCABD0
FEABD0
FFFFD0
BFFF80
1FFE00
ENDCHAR
STARTCHAR zdotaccent
ENCODING 380
SWIDTH 578 0
DWIDTH 9 0
BBX 10 15 0 0
BITMAP
02A400
1FFE00
2FBF00
2FBF00
2FFF00
7D4780
FFDBC0
FF9FD0
FF6FD0
FE7FD0
FCABD0
FEABD0
FFFFD0
BFFF80
1FFE00
ENDCHAR
STARTCHAR Zcaron
ENCODING 381
SWIDTH 578 0
DWIDTH 9 0
BBX 10 16 0 0
BITMAP
010000
0FFD00
0EDE00
0F9D00
0B6C00
1BFD00
7D4780
FFDBC0
FF9FD0
FF6FD0
FE7FD0
FCABD0
FEABD0
FFFFD0
BFFF80
1FFE00
ENDCHAR
STARTCHAR zcaron
ENCODING 382
SWIDTH 578 0
DWIDTH 9 0
BBX 10 16 0 0
BITMAP
010000
0FFD00
0EDE00
0F9D00
0B6C00
1BFD00
7D4780
FFDBC0
FF9FD0
FF6FD0
FE7FD0
FCABD0
FEABD0
FFFFD0
BFFF80
1FFE00
ENDCHAR
STARTCHAR longs
ENCODING 383
SWIDTH 578 0
DWIDTH 9 0
BBX 10 11 0 0
BITMAP
1AA900
7E6F80
F9F7C0
F7FAD0
F7BAD0
FDA7D0
FFBFD0
FFFFD0
FFFFD0
BFFF80
1FFE00
ENDCHAR
STARTCHAR florin
ENCODING 402
SWIDTH 578 0
DWIDTH 9 0
BBX 10 11 0 0
BITMAP
1AA900
7F5B80
FF7FC0
FE7FD0
FE2FD0
FF7FD0
FF7FD0
FF7FD0
F9BFD0
BFFF80
1FFE00
ENDCHAR
STARTCHAR uni01CD
ENCODING 461
SWIDTH 578 0
DWIDTH 9 0
BBX 10 16 0 0
BITMAP
010400
0BFE00
0EAE00
0B5E00
07AD00
1BFD00
7D1780
FDF3C0
F9F7D0
F853D0
FAF6D0
F6F6D0
FBFAD0
FFFFD0
BFFF80
1FFE00
ENDCHAR
STARTCHAR uni01CE
ENCODING 462
SWIDTH 578 0
DWIDTH 9 0
BBX 10 16 0 0
BITMAP
000400
0BFE00
0BAB00
0B5E00
07AD00
1BFD00
7C5780
FFF7C0
FFF7D0
F807D0
F7F7D0
F5A7D0
FEABD0
FFFFD0
BFFF80
1FFE00
ENDCHAR
STARTCHAR uni01CF
ENCODING 463
SWIDTH 578 0
DWIDTH 9 0
BBX 10 16 0 0
BITMAP
000400
07FE00
0BAB00
0B5E00
07AE00
1BFD00
790680
FFAFC0
FFAFD0
FFAFD0
FFAFD0
FE5BD0
FEABD0
FFFFD0
BFFF80
1FFE00
ENDCHAR
STARTCHAR uni01D0
ENCODING 464
SWIDTH 578 0
DWIDTH 9 0
BBX 10 16 0 0
BITMAP
000400
0BFE00
0BAB00
0B5E00
07AD00
1BFD00
790680
FFAFC0
FFAFD0
FFAFD0
FFAFD0
FE5BD0
FEABD0
FFFFD0
BFFF80
1FFE00
ENDCHAR
STARTCHAR uni01D1
ENCODING 465
SWIDTH 578 0
DWIDTH 9 0
BBX 10 16 0 0
BITMAP
000400
0BFE00
0FAB00
0B5E00
07AD00
1BFD00
785280
FAFAC0
FAFAD0
FAFAD0
FAFAD0
F9A6D0
FEABD0
FFFFD0
BFFF80
1FFE00
ENDCHAR
STARTCHAR uni01D3
ENCODING 467
SWIDTH 578 0
DWIDTH 9 0
BBX 10 16 0 0
BITMAP
000400
0BFE00
0BAB00
0B5E00
07AD00
1BFD00
7AFA80
FAFAC0
FAFAD0
FAFAD0
FAFAD0
F9A6D0
FEABD0
FFFFD0
BFFF80
1FFE00
ENDCHAR
STARTCHAR uni01D4
ENCODING 468
SWIDTH 578 0
DWIDTH 9 0
BBX 10 16 0 0
BITMAP
000400
0BFE00
0BAB00
0B5E00
07AD00
1BFD00
7AFA80
FAFAC0
FAFAD0
FAFAD0
FAFAD0
F9A6D0
FEABD0
FFFFD0
BFFF80
1FFE00
ENDCHAR
STARTCHAR uni0200
ENCODING 512
SWIDTH 578 0
DWIDTH 9 0
BBX 10 16 0 0
BITMAP
098000
2FF000
377800
2EAC00
1EED00
1FFD00
7D1780
FDF3C0
F9F7D0
F853D0
FAF6D0
F6F6D0
FBFAD0
FFFFD0
BFFF80
1FFE00
ENDCHAR
STARTCHAR uni0201
ENCODING 513
SWIDTH 578 0
DWIDTH 9 0
BBX 10 16 0 0
BITMAP
098000
2FF000
377800
2EAC00
1EED00
1FFD00
7C5780
FFF7C0
FFF7D0
F807D0
F7F7D0
F5A7D0
FEABD0
FFFFD0
BFFF80
1FFE00
ENDCHAR
STARTCHAR uni0202
ENCODING 514
SWIDTH 578 0
DWIDTH 9 0
BBX 10 15 0 0
BITMAP
02A800
1FFF00
2F5F40
1EEB00
1FFE00
7D1780
FDF3C0
F9F7D0
F853D0
FAF6D0
F6F6D0
FBFAD0
FFFFD0
BFFF80
1FFE00
ENDCHAR
STARTCHAR uni0203
ENCODING 515
SWIDTH 578 0
DWIDTH 9 0
BBX 10 15 0 0
BITMAP
02A800
1FFF00
2F5F40
1EEB00
1FFE00
7C5780
FFF7C0
FFF7D0
F807D0
F7F7D0
F5A7D0
FEABD0
FFFFD0
BFFF80
1FFE00
ENDCHAR
STARTCHAR uni0204
ENCODING 516
SWIDTH 578 0
DWIDTH 9 0
BBX 10 16 0 0
BITMAP
098000
2FF000
377800
2EAC00
1EED00
1FFD00
7C5780
FDFFC0
FDAFD0
FC5BD0
FDFFD0
FDABD0
FEABD0
FFFFD0
BFFF80
1FFE00
ENDCHAR
STARTCHAR uni0205
ENCODING 517
SWIDTH 578 0
DWIDTH 9 0
BBX 10 16 0 0
BITMAP
098000
2FF000
377800
2EAC00
1EED00
1FFD00
785780
F6F3C0
F553D0
F6ABD0
F6FFD0
F95BD0
FEAFD0
FFFFD0
BFFF80
1FFE00
ENDCHAR
STARTCHAR uni0206
ENCODING 518
SWIDTH 578 0
DWIDTH 9 0
BBX 10 15 0 0
BITMAP
02A800
1FFF00
2F5F40
1EEB00
1FFE00
7C5780
FDFFC0
FDAFD0
FC5BD0
FDFFD0
FDABD0
FEABD0
FFFFD0
BFFF80
1FFE00
ENDCHAR
STARTCHAR uni0207
ENCODING 519
SWIDTH 578 0
DWIDTH 9 0
BBX 10 15 0 0
BITMAP
02A800
1FFF00
2F5F40
1EEB00
1FFE00
785780
F6F3C0
F553D0
F6ABD0
F6FFD0
F95BD0
FEAFD0
FFFFD0
BFFF80
1FFE00
ENDCHAR
STARTCHAR uni0208
ENCODING 520
SWIDTH 578 0
DWIDTH 9 0
BBX 10 16 0 0
BITMAP
098000
2FF000
377800
2EAC00
1EED00
1FFD00
790680
FFAFC0
FFAFD0
FFAFD0
FFAFD0
FE5BD0
FEABD0
FFFFD0
BFFF80
1FFE00
ENDCHAR
STARTCHAR uni0209
ENCODING 521
SWIDTH 578 0
DWIDTH 9 0
BBX 10 16 0 0
BITMAP
098000
2FF000
377800
2EAC00
1EED00
1FFD00
790680
FFAFC0
FFAFD0
FFAFD0
FFAFD0
FE5BD0
FEABD0
FFFFD0
BFFF80
1FFE00
ENDCHAR
STARTCHAR uni020A
ENCODING 522
SWIDTH 578 0
DWIDTH 9 0
BBX 10 15 0 0
BITMAP
02A800
1FFF00
2F5F40
1EEB00
1FFE00
790680
FFAFC0
FFAFD0
FFAFD0
FFAFD0
FE5BD0
FEABD0
FFFFD0
BFFF80
1FFE00
ENDCHAR
STARTCHAR uni020B
ENCODING 523
SWIDTH 578 0
DWIDTH 9 0
BBX 10 15 0 0
BITMAP
02A800
1FFF00
2F5F40
1EEB00
1FFE00
790680
FFAFC0
FFAFD0
FFAFD0
FFAFD0
FE5BD0
FEABD0
FFFFD0
BFFF80
1FFE00
ENDCHAR
STARTCHAR uni020C
ENCODING 524
SWIDTH 578 0
DWIDTH 9 0
BBX 10 16 0 0
BITMAP
098000
2FF000
377800
2EAC00
1EED00
1FFD00
785280
FAFAC0
FAFAD0
FAFAD0
FAFAD0
F9A6D0
FEABD0
FFFFD0
BFFF80
1FFE00
ENDCHAR
STARTCHAR uni020D
ENCODING 525
SWIDTH 578 0
DWIDTH 9 0
BBX 10 16 0 0
BITMAP
098000
2FF000
377800
2EAC00
1EED00
1FFD00
785280
FAFAC0
FAFAD0
FAFAD0
FAFAD0
F9A6D0
FEABD0
FFFFD0
BFFF80
1FFE00
ENDCHAR
STARTCHAR uni020E
ENCODING 526
SWIDTH 578 0
DWIDTH 9 0
BBX 10 15 0 0
BITMAP
02A800
1FFF00
2F5F40
1EEB00
1FFE00
785280
FAFAC0
FAFAD0
FAFAD0
FAFAD0
F9A6D0
FEABD0
FFFFD0
BFFF80
1FFE00
ENDCHAR
STARTCHAR uni020F
ENCODING 527
SWIDTH 578 0
DWIDTH 9 0
BBX 10 15 0 0
BITMAP
02A800
1FFF00
2F5F40
1EEB00
1FFE00
785280
FAFAC0
FAFAD0
FAFAD0
FAFAD0
F9A6D0
FEABD0
FFFFD0
BFFF80
1FFE00
ENDCHAR
STARTCHAR uni0210
ENCODING 528
SWIDTH 578 0
DWIDTH 9 0
BBX 10 16 0 0
BITMAP
098000
2FF000
377800
2EAC00
1EED00
1FFD00
784780
F9F3C0
F9F7D0
F80BD0
F9F7D0
F9F7D0
FEFBD0
FFFFD0
BFFF80
1FFE00
ENDCHAR
STARTCHAR uni0211
ENCODING 529
SWIDTH 578 0
DWIDTH 9 0
BBX 10 16 0 0
BITMAP
098000
2FF000
377800
2EAC00
1EED00
1FFD00
784780
F9F3C0
F9F7D0
F80BD0
F9F7D0
F9F7D0
FEFBD0
FFFFD0
BFFF80
1FFE00
ENDCHAR
STARTCHAR uni0212
ENCODING 530
SWIDTH 578 0
DWIDTH 9 0
BBX 10 15 0 0
BITMAP
02A800
1FFF00
2F5F40
1EEB00
1FFE00
784780
F9F3C0
F9F7D0
F80BD0
F9F7D0
F9F7D0
FEFBD0
FFFFD0
BFFF80
1FFE00
ENDCHAR
STARTCHAR uni0213
ENCODING 531
SWIDTH 578 0
DWIDTH 9 0
BBX 10 15 0 0
BITMAP
02A800
1FFF00
2F5F40
1EEB00
1FFE00
784780
F9F3C0
F9F7D0
F80BD0
F9F7D0
F9F7D0
FEFBD0
FFFFD0
BFFF80
1FFE00
ENDCHAR
STARTCHAR uni0214
ENCODING 532
SWIDTH 578 0
DWIDTH 9 0
BBX 10 16 0 0
BITMAP
098000
2FF000
377800
2EAC00
1EED00
1FFD00
7AFA80
FAFAC0
FAFAD0
FAFAD0
FAFAD0
F9A6D0
FEABD0
FFFFD0
BFFF80
1FFE00
ENDCHAR
STARTCHAR uni0215
ENCODING 533
SWIDTH 578 0
DWIDTH 9 0
BBX 10 16 0 0
BITMAP
098000
2FF000
377800
2EAC00
1EED00
1FFD00
7AFA80
FAFAC0
FAFAD0
FAFAD0
FAFAD0
F9A6D0
FEABD0
FFFFD0
BFFF80
1FFE00
ENDCHAR
STARTCHAR uni0216
ENCODING 534
SWIDTH 578 0
DWIDTH 9 0
BBX 10 15 0 0
BITMAP
02A800
1FFF00
2F5F40
1EEB00
1FFE00
7AFA80
FAFAC0
FAFAD0
FAFAD0
FAFAD0
F9A6D0
FEABD0
FFFFD0
BFFF80
1FFE00
ENDCHAR
STARTCHAR uni0217
ENCODING 535
SWIDTH 578 0
DWIDTH 9 0
BBX 10 15 0 0
BITMAP
02A800
1FFF00
2F5F40
1EEB00
1FFE00
7AFA80
FAFAC0
FAFAD0
FAFAD0
FAFAD0
F9A6D0
FEABD0
FFFFD0
BFFF80
1FFE00
ENDCHAR
STARTCHAR uni0218
ENCODING 536
SWIDTH 578 0
DWIDTH 9 0
BBX 10 11 0 0
BITMAP
1AA900
7D5780
F9FFC0
F9AFD0
FE52D0
FFF6D0
FEA6D0
FEABD0
FF5FD0
BFAF80
1FFE00
ENDCHAR
STARTCHAR uni0219
ENCODING 537
SWIDTH 578 0
DWIDTH 9 0
BBX 10 11 0 0
BITMAP
1AA900
7D5780
F9FFC0
F9AFD0
FE52D0
FFF6D0
FEA6D0
FEABD0
FF5FD0
BFAF80
1FFE00
ENDCHAR
STARTCHAR uni021A
ENCODING 538
SWIDTH 578 0
DWIDTH 9 0
BBX 10 11 0 0
BITMAP
1AA900
790680
FFAFC0
FFAFD0
FFAFD0
FFAFD0
FFAFD0
FFEFD0
FF9FD0
BFEF80
1FFE00
ENDCHAR
STARTCHAR uni021B
ENCODING 539
SWIDTH 578 0
DWIDTH 9 0
BBX 10 11 0 0
BITMAP
1AA900
790680
FFAFC0
FFAFD0
FFAFD0
FFAFD0
FFAFD0
FFEFD0
FF9FD0
BFEF80
1FFE00
ENDCHAR
STARTCHAR circumflex
ENCODING 710
SWIDTH 355 0
DWIDTH 6 0
BBX 6 6 0 0
BITMAP
1A00
3F80
76C0
B9D0
EEE0
AA90
ENDCHAR
STARTCHAR caron
ENCODING 711
SWIDTH 355 0
DWIDTH 6 0
BBX 6 6 0 0
BITMAP
1040
BFD0
EAE0
B5E0
BAD0
2A80
ENDCHAR
STARTCHAR breve
ENCODING 728
SWIDTH 428 0
DWIDTH 7 0
BBX 7 5 0 0
BITMAP
1A80
7FF4
FBB8
F578
7FF4
ENDCHAR
STARTCHAR dotaccent
ENCODING 729
SWIDTH 428 0
DWIDTH 7 0
BBX 7 5 0 0
BITMAP
1A80
7FF4
FEF8
FEF8
7FF4
ENDCHAR
STARTCHAR ring
ENCODING 730
SWIDTH 368 0
DWIDTH 6 0
BBX 6 5 0 0
BITMAP
2F80
B6D0
EAA0
E5F0
BFE0
ENDCHAR
STARTCHAR ogonek
ENCODING 731
SWIDTH 101 0
DWIDTH 2 0
BBX 2 3 0 -3
BITMAP
90
90
50
ENDCHAR
STARTCHAR tilde
ENCODING 732
SWIDTH 428 0
DWIDTH 7 0
BBX 7 5 0 0
BITMAP
2FE0
BFF4
FFF8
E538
7FF4
ENDCHAR
STARTCHAR hungarumlaut
ENCODING 733
SWIDTH 419 0
DWIDTH 7 0
BBX 7 6 0 0
BITMAP
0550
2FF0
3A78
B7B4
EEE0
AA80
ENDCHAR
STARTCHAR uni030F
ENCODING 783
SWIDTH 419 0
DWIDTH 7 0
BBX 7 6 0 0
BITMAP
1640
7FD0
E9E0
B7B4
2FB8
1AA4
ENDCHAR
STARTCHAR mu
ENCODING 956
SWIDTH 578 0
DWIDTH 9 0
BBX 10 11 0 0
BITMAP
1AA900
7AFA80
FAFAC0
FAFAD0
FAFAD0
FAFAD0
F9A6D0
F9ABD0
FFFFD0
BFFF80
1FFE00
ENDCHAR
STARTCHAR pi
ENCODING 960
SWIDTH 578 0
DWIDTH 9 0
BBX 10 11 0 0
BITMAP
1AA900
795780
F659C0
DDEA90
DD5B90
DDFA90
EAF9D0
FAA6D0
FFAFD0
BFFF80
1FFE00
ENDCHAR
STARTCHAR uni1E60
ENCODING 7776
SWIDTH 578 0
DWIDTH 9 0
BBX 10 15 0 0
BITMAP
01A400
0BFF00
1FAF40
1FAF40
1FFF00
7D5780
F9FFC0
F9AFD0
FE52D0
FFF6D0
FEA6D0
FEABD0
FFFFD0
BFFF80
1FFE00
ENDCHAR
STARTCHAR uni1E8E
ENCODING 7822
SWIDTH 578 0
DWIDTH 9 0
BBX 10 15 0 0
BITMAP
01A400
0FFF00
1FAF40
1FAF40
1FFF00
79F780
FDA7C0
FE5BD0
FF1FD0
FF6FD0
FFAFD0
FFAFD0
FFFFD0
BFFF80
1FFE00
ENDCHAR
STARTCHAR uni1E8F
ENCODING 7823
SWIDTH 578 0
DWIDTH 9 0
BBX 10 15 0 0
BITMAP
01A400
0FFF00
1FAF40
1FAF40
1FFF00
79F780
FDA7C0
FE5BD0
FF1FD0
FF6FD0
FFAFD0
FFAFD0
FFFFD0
BFFF80
1FFE00
ENDCHAR
STARTCHAR uni1EBC
ENCODING 7868
SWIDTH 578 0
DWIDTH 9 0
BBX 10 15 0 0
BITMAP
06FD00
0FFF00
1FFF40
1D5740
1FFF00
7C5780
FDFFC0
FDAFD0
FC5BD0
FDFFD0
FDABD0
FEABD0
FFFFD0
BFFF80
1FFE00
ENDCHAR
STARTCHAR uni1EF8
ENCODING 7928
SWIDTH 578 0
DWIDTH 9 0
BBX 10 15 0 0
BITMAP
07FD00
0FFF00
1FFF40
1D5740
1FFF00
79F780
FDA7C0
FE5BD0
FF1FD0
FF6FD0
FFAFD0
FFAFD0
FFFFD0
BFFF80
1FFE00
ENDCHAR
STARTCHAR uni1EF9
ENCODING 7929
SWIDTH 578 0
DWIDTH 9 0
BBX 10 15 0 0
BITMAP
07FD00
0FFF00
1FFF40
1D5740
1FFF00
79F780
FDA7C0
FE5BD0
FF1FD0
FF6FD0
FFAFD0
FFAFD0
FFFFD0
BFFF80
1FFE00
ENDCHAR
STARTCHAR endash
ENCODING 8211
SWIDTH 428 0
DWIDTH 7 0
BBX 7 11 0 0
BITMAP
1A80
7FF4
FFF8
F57C
FFFC
FFFC
FFFC
FFFC
FFF8
BFF4
1F90
ENDCHAR
STARTCHAR emdash
ENCODING 8212
SWIDTH 428 0
DWIDTH 7 0
BBX 7 11 0 0
BITMAP
1A80
7FF4
FFF8
5550
FFFC
FFFC
FFFC
FFFC
FFF8
BFF4
1F90
ENDCHAR
STARTCHAR quoteleft
ENCODING 8216
SWIDTH 428 0
DWIDTH 7 0
BBX 7 11 0 0
BITMAP
1A80
7DF4
FCF8
FFFC
FFFC
FFFC
FFFC
FFFC
FFF8
BFF4
1F90
ENDCHAR
STARTCHAR quoteright
ENCODING 8217
SWIDTH 428 0
DWIDTH 7 0
BBX 7 11 0 0
BITMAP
1A80
7CF4
FDF8
FFFC
FFFC
FFFC
FFFC
FFFC
FFF8
BFF4
1F90
ENDCHAR
STARTCHAR quotesinglbase
ENCODING 8218
SWIDTH 428 0
DWIDTH 7 0
BBX 7 11 0 0
BITMAP
1A80
7FF4
FFF8
FFFC
FFFC
FFFC
FDFC
FDFC
FEF8
BFF4
1F90
ENDCHAR
STARTCHAR quotedblleft
ENCODING 8220
SWIDTH 428 0
DWIDTH 7 0
BBX 7 11 0 0
BITMAP
1A80
76B4
F178
FFFC
FFFC
FFFC
FFFC
FFFC
FFF8
BFF4
1F90
ENDCHAR
STARTCHAR quotedblright
ENCODING 8221
SWIDTH 428 0
DWIDTH 7 0
BBX 7 11 0 0
BITMAP
1A80
7534
FA78
FFFC
FFFC
FFFC
FFFC
FFFC
FFF8
BFF4
1F90
ENDCHAR
STARTCHAR quotedblbase
ENCODING 8222
SWIDTH 428 0
DWIDTH 7 0
BBX 7 11 0 0
BITMAP
1A80
7FF4
FFF8
FFFC
FFFC
FFFC
FA7C
F97C
FBB8
BFF4
1F90
ENDCHAR
STARTCHAR dagger
ENCODING 8224
SWIDTH 578 0
DWIDTH 9 0
BBX 10 11 0 0
BITMAP
1AA900
7FAF80
FE4BC0
FF9FD0
FFAFD0
FFAFD0
FFAFD0
FFEFD0
FFFFD0
BFFF80
1FFE00
ENDCHAR
STARTCHAR daggerdbl
ENCODING 8225
SWIDTH 578 0
DWIDTH 9 0
BBX 10 11 0 0
BITMAP
1AA900
7FAF80
FE4BC0
FF9FD0
FFAFD0
FE5BD0
FF5BD0
FFEFD0
FFFFD0
BFFF80
1FFE00
ENDCHAR
STARTCHAR bullet
ENCODING 8226
SWIDTH 578 0
DWIDTH 9 0
BBX 10 11 0 0
BITMAP
1AA900
7FAF80
F803C0
F802D0
F802D0
F802D0
FC03D0
FFFFD0
FFFFD0
BFFF80
1FFE00
ENDCHAR
STARTCHAR ellipsis
ENCODING 8230
SWIDTH 578 0
DWIDTH 9 0
BBX 10 11 0 0
BITMAP
1AA900
7FFF80
FFFFC0
FFFFD0
FFFFD0
FFFFD0
F777D0
FBBBD0
FFFFD0
BFFF80
1FFE00
ENDCHAR
STARTCHAR perthousand
ENCODING 8240
SWIDTH 640 0
DWIDTH 10 0
BBX 11 11 0 0
BITMAP
1AAA40
5BBFE0
567FF0
85BFF4
FDABA4
FD6184
FA5554
FFFFF4
FFFFF4
BFFFE0
1FFF80
ENDCHAR
STARTCHAR guilsinglleft
ENCODING 8249
SWIDTH 578 0
DWIDTH 9 0
BBX 10 11 0 0
BITMAP
1AA900
7FFF80
FFDFC0
FF6FD0
FE7FD0
FF7FD0
FF9FD0
FFEFD0
FFFFD0
BFFF80
1FFE00
ENDCHAR
STARTCHAR guilsinglright
ENCODING 8250
SWIDTH 578 0
DWIDTH 9 0
BBX 10 11 0 0
BITMAP
1AA900
7FFF80
FF7FC0
FFAFD0
FFDFD0
FFDFD0
FF7FD0
FEBFD0
FFFFD0
BFFF80
1FFE00
ENDCHAR
STARTCHAR fraction
ENCODING 8260
SWIDTH 428 0
DWIDTH 7 0
BBX 7 11 0 0
BITMAP
1A80
7DB4
FDF8
FCFC
FDFC
F9FC
FAFC
FBFC
FFF8
BFF4
1F90
ENDCHAR
STARTCHAR Euro
ENCODING 8364
SWIDTH 578 0
DWIDTH 9 0
BBX 10 11 0 0
BITMAP
1AA900
785B80
F6FFC0
E17FD0
E5BFD0
F6BFD0
F5ABD0
FEABD0
FFFFD0
BFFF80
1FFE00
ENDCHAR
STARTCHAR trademark
ENCODING 8482
SWIDTH 578 0
DWIDTH 9 0
BBX 10 11 0 0
BITMAP
1AA900
7FFF80
FFFFC0
FABBD0
F957D0
FE57D0
FFFFD0
FFFFD0
FFFFD0
BFFF80
1FFE00
ENDCHAR
STARTCHAR product
ENCODING 8719
SWIDTH 578 0
DWIDTH 9 0
BBX 10 11 0 0
BITMAP
1AA900
795780
F6A9C0
DEB690
DEA790
DEAE90
EAFDD0
F9A6D0
FFAFD0
BFFF80
1FFE00
ENDCHAR
STARTCHAR minus
ENCODING 8722
SWIDTH 428 0
DWIDTH 7 0
BBX 7 11 0 0
BITMAP
1A80
7FF4
FFF8
F57C
FFFC
FFFC
FFFC
FFFC
FFF8
BFF4
1F90
ENDCHAR
STARTCHAR notequal
ENCODING 8800
SWIDTH 578 0
DWIDTH 9 0
BBX 10 11 0 0
BITMAP
1AA900
7FEF80
FA8BC0
FA2BD0
F807D0
FEBFD0
FFFFD0
FFFFD0
FFFFD0
BFFF80
1FFE00
ENDCHAR
STARTCHAR uni2706
ENCODING 9990
SWIDTH 578 0
DWIDTH 9 0
BBX 10 11 0 0
BITMAP
1AA900
7FAF80
FFABC0
F9ABD0
F9FFD0
FCFFD0
FD6FD0
FF97D0
FFFFD0
BFFF80
1FFE00
ENDCHAR
STARTCHAR uni2708
ENCODING 9992
SWIDTH 578 0
DWIDTH 9 0
BBX 10 11 0 0
BITMAP
155500
51A040
404040
459910
41F010
409010
408010
404010
404010
40D040
155500
ENDCHAR
STARTCHAR uniF6D6
ENCODING 63190
SWIDTH 419 0
DWIDTH 7 0
BBX 7 6 0 0
BITMAP
1640
7FD0
E9E0
B7B4
2FB8
1AA4
ENDCHAR
STARTCHAR uFFFF2
ENCODING 1048562
SWIDTH 578 0
DWIDTH 9 0
BBX 10 11 0 0
BITMAP
155500
504040
408040
409010
42F410
444510
409010
415010
404010
40D040
155500
ENDCHAR
STARTCHAR uFFFF3
ENCODING 1048563
SWIDTH 578 0
DWIDTH 9 0
BBX 10 11 0 0
BITMAP
155500
505040
416440
42A810
40A010
41F410
416810
406010
400010
400040
155500
ENDCHAR
STARTCHAR uFFFF4
ENCODING 1048564
SWIDTH 578 0
DWIDTH 9 0
BBX 10 11 0 0
BITMAP
1AA900
7FFF80
FEABC0
FAB7D0
F7BAD0
FAFBD0
FD5BD0
FFFFD0
FFFFD0
BFFF80
1FFE00
ENDCHAR
STARTCHAR uFFFF5
ENCODING 1048565
SWIDTH 578 0
DWIDTH 9 0
BBX 10 11 0 0
BITMAP
1AA900
7E5F80
FFBFC0
FA66D0
FE0FD0
FF6FD0
FF7FD0
FFBFD0
FFBFD0
BF2F80
1FFE00
ENDCHAR
STARTCHAR uFFFF6
ENCODING 1048566
SWIDTH 578 0
DWIDTH 9 0
BBX 10 11 0 0
BITMAP
1AA900
7FBF80
FF7FC0
FF6FD0
FD0BD0
FB7AD0
FF7FD0
FEAFD0
FFBFD0
BF2F80
1FFE00
ENDCHAR
STARTCHAR uFFFF8
ENCODING 1048568
SWIDTH 578 0
DWIDTH 9 0
BBX 10 11 0 0
BITMAP
1AA900
7FBF80
FE5FC0
FD4BD0
FA6BD0
F513D0
F807D0
FD0BD0
FFBFD0
BF2F80
1FFE00
ENDCHAR
STARTCHAR uFFFF9
ENCODING 1048569
SWIDTH 578 0
DWIDTH 9 0
BBX 10 11 0 0
BITMAP
155500
500040
415440
454810
484510
450410
42A410
400010
400010
400040
155500
ENDCHAR
STARTCHAR uFFFFB
ENCODING 1048571
SWIDTH 578 0
DWIDTH 9 0
BBX 10 11 0 0
BITMAP
1AA900
7F6F80
FE5BC0
FD1FD0
FF2FD0
FD5BD0
FF5BD0
FF7FD0
FFFFD0
BFFF80
1FFE00
ENDCHAR
STARTCHAR uFFFFC
ENCODING 1048572
SWIDTH 578 0
DWIDTH 9 0
BBX 10 11 0 0
BITMAP
1AA900
7E5B80
E6A9C0
F9A6D0
FD5BD0
FF6FD0
FFBFD0
FFFFD0
FFFFD0
BFFF80
1FFE00
ENDCHAR
STARTCHAR uFFFFD
ENCODING 1048573
SWIDTH 578 0
DWIDTH 9 0
BBX 10 11 0 0
BITMAP
1AA900
7FAF80
FC07C0
F803D0
FA67D0
FD5BD0
FE5FD0
FE6FD0
FFBFD0
BF2F80
1FFE00
ENDCHAR
STARTCHAR uFFFFE
ENCODING 1048574
SWIDTH 578 0
DWIDTH 9 0
BBX 10 11 0 0
BITMAP
1AA900
7AEA80
EA59C0
E65DD0
EA5DD0
EA59D0
FAEAD0
FFFFD0
FFFFD0
BFFF80
1FFE00
ENDCHAR
STARTCHAR uFFFFF
ENCODING 1048575
SWIDTH 578 0
DWIDTH 9 0
BBX 10 11 0 0
BITMAP
155500
505040
43F840
47FC10
459810
42A410
41A010
419010
404010
40D040
155500
ENDCHAR
STARTCHAR .notdef
ENCODING -1
SWIDTH 1000 0
DWIDTH 16 0
BBX 1 1 0 0
BITMAP
00
ENDCHAR
STARTCHAR glyph1
ENCODING -1
SWIDTH 0 0
DWIDTH 0 0
BBX 1 1 0 0
BITMAP
00
ENDCHAR
ENDFONT
